<?xml version="1.0" encoding="utf-8"?>
<svg version="1.1" xmlns:xlink="http://www.w3.org/1999/xlink" width="11px" height="11px" xmlns="http://www.w3.org/2000/svg">
  <g transform="matrix(1 0 0 1 -852 -514 )">
    <path d="M 10.6298076923077 3.94391934467549  C 10.8766025641026 3.98550724637681  11 4.09178743961353  11 4.26275992438563  C 11 4.36441923965553  10.9427083333333 4.47532031085906  10.828125 4.59546313799622  L 8.42848557692308 7.04914933837429  L 8.99699519230769 10.5148078134846  C 9.00140224358974 10.5471539592523  9.00360576923077 10.5933627389204  9.00360576923077 10.653434152489  C 9.00360576923077 10.7504725897921  8.98046875 10.832493173703  8.93419471153846 10.8994959042218  C 8.88792067307692 10.9664986347406  8.82071314102564 11  8.73257211538462 11  C 8.64883814102564 11  8.56069711538462 10.9722747321991  8.46814903846154 10.9168241965974  L 5.5 9.28103339634531  L 2.53185096153846 10.9168241965974  C 2.43489583333333 10.9722747321991  2.34675480769231 11  2.26742788461538 11  C 2.17487980769231 11  2.10546875 10.9664986347406  2.05919471153846 10.8994959042218  C 2.01292067307692 10.832493173703  1.98978365384615 10.7504725897921  1.98978365384615 10.653434152489  C 1.98978365384615 10.6257088846881  1.99419070512821 10.57950010502  2.00300480769231 10.5148078134846  L 2.57151442307692 7.04914933837429  L 0.165264423076923 4.59546313799622  C 0.055088141025641 4.47069943289225  0 4.35979836168872  0 4.26275992438563  C 0 4.09178743961353  0.123397435897436 3.98550724637681  0.370192307692308 3.94391934467549  L 3.68870192307692 3.43793320730939  L 5.17608173076923 0.284183994959042  C 5.25981570512821 0.0947279983196802  5.36778846153846 0  5.5 0  C 5.63221153846154 0  5.74018429487179 0.0947279983196802  5.82391826923077 0.284183994959042  L 7.31129807692308 3.43793320730939  L 10.6298076923077 3.94391934467549  Z " fill-rule="nonzero" fill="#7f7f7f" stroke="none" transform="matrix(1 0 0 1 852 514 )" />
  </g>
</svg>