<?xml version="1.0" standalone="no"?><!DOCTYPE svg PUBLIC "-//W3C//DTD SVG 1.1//EN" "http://www.w3.org/Graphics/SVG/1.1/DTD/svg11.dtd"><svg class="icon" width="64px" height="64.00px" viewBox="0 0 1024 1024" version="1.1" xmlns="http://www.w3.org/2000/svg"><path d="M0 450.56h1024v122.88H0zM0 675.84h1024v122.88H0zM0 901.12h1024V1024H0z" fill="#4486F7" /><path d="M414.72 435.2V266.24h215.04V133.12H414.72V0H281.6v435.2C148.48 465.92 51.2 583.68 51.2 727.04 51.2 890.88 184.32 1024 348.16 1024s296.96-133.12 296.96-296.96c0-143.36-97.28-261.12-230.4-291.84z m-66.56 455.68c-92.16 0-163.84-71.68-163.84-163.84S256 563.2 348.16 563.2s163.84 71.68 163.84 163.84-71.68 163.84-163.84 163.84z" fill="#FEBC06" /></svg>