<?xml version="1.0" standalone="no"?><!DOCTYPE svg PUBLIC "-//W3C//DTD SVG 1.1//EN" "http://www.w3.org/Graphics/SVG/1.1/DTD/svg11.dtd"><svg class="icon" width="64px" height="64.00px" viewBox="0 0 1024 1024" version="1.1" xmlns="http://www.w3.org/2000/svg"><path d="M655.36 368.64m-368.64 0a368.64 368.64 0 1 0 737.28 0 368.64 368.64 0 1 0-737.28 0Z" fill="#FEBC06" /><path d="M353.28 1018.88C158.72 1018.88 0 860.16 0 665.6s158.72-353.28 353.28-353.28c194.56 0 353.28 158.72 353.28 353.28s-153.6 353.28-353.28 353.28z m0-583.68c-128 0-230.4 102.4-230.4 230.4s102.4 230.4 230.4 230.4 230.4-102.4 230.4-230.4-102.4-230.4-230.4-230.4z" fill="#4486F7" /></svg>