<?xml version="1.0" standalone="no"?><!DOCTYPE svg PUBLIC "-//W3C//DTD SVG 1.1//EN" "http://www.w3.org/Graphics/SVG/1.1/DTD/svg11.dtd"><svg class="icon" width="64px" height="64.00px" viewBox="0 0 1024 1024" version="1.1" xmlns="http://www.w3.org/2000/svg"><path d="M465.92 911.36c-199.68 0-358.4-158.72-358.4-358.4s158.72-358.4 358.4-358.4h363.52v358.4c0 199.68-163.84 358.4-363.52 358.4z m0-583.68c-122.88 0-225.28 102.4-225.28 225.28s102.4 225.28 225.28 225.28 225.28-102.4 225.28-225.28V327.68H465.92z" fill="#FEBC06" /><path d="M624.64 552.96c0 87.04-71.68 158.72-158.72 158.72S307.2 640 307.2 552.96s71.68-158.72 158.72-158.72h158.72v158.72z" fill="#4486F7" /><path d="M153.6 885.76m-138.24 0a138.24 138.24 0 1 0 276.48 0 138.24 138.24 0 1 0-276.48 0Z" fill="#4486F7" /><path d="M747.52 0H1024v276.48h-276.48z" fill="#4486F7" /></svg>