<?xml version="1.0" standalone="no"?><!DOCTYPE svg PUBLIC "-//W3C//DTD SVG 1.1//EN" "http://www.w3.org/Graphics/SVG/1.1/DTD/svg11.dtd"><svg class="icon" width="64px" height="64.00px" viewBox="0 0 1024 1024" version="1.1" xmlns="http://www.w3.org/2000/svg"><path d="M0 435.2h798.72v102.4H0zM0 640h537.6v102.4H0zM0 844.8h798.72v102.4H0z" fill="#4486F7" /><path d="M271.36 1013.76h624.64c30.72 0 66.56-15.36 87.04-35.84 25.6-25.6 35.84-56.32 35.84-87.04V138.24c0-30.72-15.36-66.56-35.84-87.04-25.6-25.6-56.32-35.84-87.04-35.84H271.36C204.8 10.24 148.48 66.56 148.48 138.24v752.64c0 30.72 15.36 66.56 35.84 87.04 20.48 20.48 56.32 35.84 87.04 35.84z m563.2-189.44h-189.44c-35.84 0-61.44-25.6-61.44-61.44s25.6-61.44 61.44-61.44h189.44c35.84 0 61.44 25.6 61.44 61.44 5.12 35.84-25.6 61.44-61.44 61.44zM271.36 199.68c0-15.36 5.12-30.72 20.48-46.08 10.24-10.24 25.6-20.48 46.08-20.48h501.76c15.36 0 30.72 5.12 46.08 20.48 10.24 10.24 20.48 25.6 20.48 46.08V512c0 35.84-25.6 61.44-61.44 61.44h-512c-15.36 0-30.72-5.12-46.08-20.48-10.24-10.24-20.48-25.6-20.48-46.08v-307.2z" fill="#FEBC06" /></svg>