<?xml version="1.0" standalone="no"?>
<!DOCTYPE svg PUBLIC "-//W3C//DTD SVG 1.1//EN" "http://www.w3.org/Graphics/SVG/1.1/DTD/svg11.dtd" >
<!--
2013-9-30: Created.
-->
<svg>
<metadata>
Created by iconfont
</metadata>
<defs>

<font id="iconfont" horiz-adv-x="1024" >
  <font-face
    font-family="iconfont"
    font-weight="500"
    font-stretch="normal"
    units-per-em="1024"
    ascent="896"
    descent="-128"
  />
    <missing-glyph />
    
    <glyph glyph-name="ziyuan62" unicode="&#59037;" d="M1281.27168 598.077337H27.992924a27.943785 27.943785 0 0 0-27.943785 27.943785v86.625733A179.287324 179.287324 0 0 0 173.580044 896h960.80513a175.906126 175.906126 0 0 0 124.824888-54.965425A182.668522 182.668522 0 0 0 1309.215465 712.800546v-86.779424a27.943785 27.943785 0 0 0-27.943785-27.943785z m-1225.334971 55.88757h1197.391186v59.394514a126.990531 126.990531 0 0 1-34.790013 89.336281A119.697203 119.697203 0 0 1 1133.770411 840.11243H174.949289A123.721108 123.721108 0 0 1 55.936709 713.680775v-0.698595zM1133.993961-128H174.949289a175.906126 175.906126 0 0 0-124.824887 54.909537A182.682494 182.682494 0 0 0 0.049139 55.199454V545.305499a27.943785 27.943785 0 0 0 27.943785 27.943785h1253.278756a27.943785 27.943785 0 0 0 27.943785-27.943785v-490.106045a182.710438 182.710438 0 0 0-50.019375-128.289917 175.906126 175.906126 0 0 0-124.810916-54.909537z m-958.471824 55.88757h958.262246a119.697203 119.697203 0 0 1 84.753499 37.36084 127.144222 127.144222 0 0 1 34.803985 89.420112V517.361714H55.936709v-462.721135a127.144222 127.144222 0 0 1 34.803984-89.420112 119.711175 119.711175 0 0 1 84.809388-37.332897z m916.556147 92.913085H886.467914a27.943785 27.943785 0 0 0-25.289126 39.805922l69.733716 148.800655a27.943785 27.943785 0 0 0 25.303097 16.081648h209.187174A27.943785 27.943785 0 0 0 1190.454379 185.207914l-73.254633-148.800655a27.943785 27.943785 0 0 0-25.051603-15.606604z m-161.710684 55.88757h144.385537l45.743976 92.913085H973.973876z m-128.331832-55.88757h-72.402347a27.943785 27.943785 0 0 0-25.149407 40.155219L776.886361 209.756529a27.943785 27.943785 0 0 0 25.149407 15.732351h70.599972a27.943785 27.943785 0 0 0 25.24721-39.917697L827.185174 36.728612a27.943785 27.943785 0 0 0-25.149406-15.927957z m-27.678319 55.88757h10.003875l44.08132 92.913085h-8.928039z m-132.732979-55.88757h-72.374403a27.943785 27.943785 0 0 0-24.897912 40.630263l75.839432 148.800655a27.943785 27.943785 0 0 0 24.897912 15.257307h70.599973a27.943785 27.943785 0 0 0 25.02366-40.392741l-74.051031-148.800655a27.943785 27.943785 0 0 0-25.051603-15.494829z m-26.812062 55.88757h9.458972l46.246964 92.913085h-8.383136z"  horiz-adv-x="1309" />

    
    <glyph glyph-name="ziyuan59" unicode="&#58920;" d="M1218.108919-82.959879a45.026526 45.026526 0 0 0-45.026526-45.040121H45.026526A45.040121 45.040121 0 0 0 0-82.959879V634.97666a45.026526 45.026526 0 0 0 45.026526 45.026526H228.123523L231.304745 286.94554s-1.046812-31.023712 29.120416-30.751812c16.245984 0.16314 77.790393 52.639707 101.05138 72.977776a13.594966 13.594966 0 0 0 17.904569 0c22.594833-19.87584 81.352274-70.258782 97.883753-71.332785 31.553915-2.05284 30.751812 29.120416 30.751812 29.120416l-1.563421 393.125621h666.615544A45.040121 45.040121 0 0 0 1218.108919 634.97666zM1218.108919 803.758158A77.654444 77.654444 0 0 0 1140.46807 726.06293H25.150686a22.757972 22.757972 0 0 0-22.744377 22.798757v124.393936A22.744377 22.744377 0 0 0 25.150686 896h1170.132286a22.744377 22.744377 0 0 0 22.744377-22.744377v-69.497465z"  horiz-adv-x="1218" />

    
    <glyph glyph-name="xiala" unicode="&#59035;" d="M870.4 517.12l-358.4-363.52-358.4 363.52H0l512-512 512 512z"  horiz-adv-x="1024" />

    
    <glyph glyph-name="shouqi" unicode="&#59036;" d="M1024 5.12l-512 512-512-512h153.6l358.4 363.52 358.4-363.52z"  horiz-adv-x="1024" />

    
    <glyph glyph-name="zhaohuanguolv" unicode="&#59034;" d="M504.859627 215.453416L326.772671 387.180124 256.809938 145.490683zM352.213665 412.621118l178.086956-178.086957 387.975155 387.975156-171.726708 178.086956zM1000.959006 775.15528L892.834783 883.279503c-19.080745 19.080745-50.881988 19.080745-69.962733 0l-50.881988-50.881987 178.086957-178.086957 50.881987 50.881988c19.080745 19.080745 19.080745 50.881988 0 69.962733zM810.151553 425.341615c12.720497-31.801242 19.080745-69.962733 19.080745-101.763975 0-209.888199-171.726708-381.614907-381.614907-381.614907-108.124224 0-203.52795 44.521739-267.130434 114.484472l-12.720497-6.360248 6.360248 12.720496C110.524224 132.770186 66.002484 221.813665 66.002484 323.57764c0 209.888199 171.726708 381.614907 381.614907 381.614907 31.801242 0 63.602484-6.360248 95.403727-12.720497l50.881988 50.881987c-44.521739 12.720497-95.403727 19.080745-146.285715 19.080746-241.689441 0-445.217391-197.167702-445.217391-445.217392s197.167702-445.217391 445.217391-445.217391 445.217391 197.167702 445.217392 445.217391c0 57.242236-12.720497 108.124224-31.801243 152.645963l-50.881987-44.521739z"  horiz-adv-x="1024" />

    
    <glyph glyph-name="kaiguan" unicode="&#59033;" d="M512 352c19.2 0 38.4 6.4 51.2 19.2 12.8 12.8 19.2 25.6 19.2 44.8V825.6c0 19.2-6.4 32-19.2 51.2C544 889.6 531.2 896 512 896c-19.2 0-38.4-6.4-51.2-19.2-12.8-12.8-19.2-32-19.2-51.2v-409.6c0-19.2 6.4-32 19.2-44.8 12.8-12.8 32-19.2 51.2-19.2zM940.8 576c-19.2 32-38.4 64-64 96s-51.2 57.6-83.2 76.8c-12.8 12.8-32 12.8-51.2 12.8-19.2 0-32-12.8-44.8-25.6-12.8-12.8-12.8-32-12.8-51.2 6.4-19.2 12.8-32 25.6-44.8 44.8-32 83.2-70.4 108.8-121.6 25.6-51.2 38.4-102.4 38.4-160 0-44.8-6.4-89.6-25.6-134.4s-44.8-76.8-76.8-108.8-70.4-57.6-108.8-76.8-89.6-32-134.4-32c-44.8 0-89.6 6.4-134.4 25.6s-76.8 44.8-108.8 76.8-57.6 70.4-76.8 108.8c-12.8 44.8-25.6 89.6-25.6 134.4 0 57.6 12.8 108.8 38.4 153.6 25.6 44.8 57.6 89.6 102.4 121.6 12.8 12.8 25.6 32 25.6 51.2 0 19.2 0 38.4-12.8 51.2-12.8 12.8-25.6 19.2-44.8 25.6-19.2 0-38.4 0-51.2-12.8-25.6-25.6-57.6-51.2-83.2-76.8-25.6-25.6-44.8-57.6-64-89.6C64 537.6 51.2 499.2 44.8 467.2 32 428.8 32 390.4 32 352c0-64 12.8-128 38.4-185.6 25.6-57.6 57.6-108.8 102.4-153.6 44.8-44.8 96-76.8 153.6-102.4 57.6-25.6 121.6-38.4 185.6-38.4s128 12.8 185.6 38.4c57.6 25.6 108.8 57.6 153.6 102.4 44.8 44.8 76.8 96 102.4 153.6 25.6 57.6 38.4 121.6 38.4 185.6 0 38.4-6.4 76.8-12.8 115.2-6.4 38.4-25.6 76.8-38.4 108.8z"  horiz-adv-x="1024" />

    
    <glyph glyph-name="baohanquehuodingdan" unicode="&#59015;" d="M885.76 532.48c-15.36 30.72-51.2 46.08-81.92 46.08H220.16c-30.72 0-56.32-15.36-81.92-46.08L0 281.6v-394.24h1024V281.6l-138.24 250.88zM204.8 496.64c0 5.12 5.12 5.12 15.36 5.12h583.68c5.12 0 15.36 0 15.36-5.12l133.12-235.52h-327.68c0-56.32-51.2-107.52-107.52-107.52S409.6 204.8 409.6 261.12H71.68L204.8 496.64zM527.36 619.52c-20.48 0-35.84 15.36-35.84 35.84V803.84c0 20.48 15.36 35.84 35.84 35.84s35.84-15.36 35.84-35.84v-148.48c0-20.48-15.36-35.84-35.84-35.84z m204.8 10.24c-20.48 5.12-30.72 30.72-15.36 51.2l71.68 122.88c5.12 15.36 30.72 20.48 51.2 15.36 15.36-5.12 20.48-30.72 15.36-51.2L783.36 640c-15.36-20.48-35.84-25.6-51.2-10.24z m-404.48 0c-20.48-15.36-40.96-10.24-51.2 10.24L204.8 768c-15.36 15.36-5.12 35.84 15.36 51.2 15.36 5.12 35.84 5.12 51.2-15.36l71.68-122.88c10.24-25.6 0-46.08-15.36-51.2z"  horiz-adv-x="1024" />

    
    <glyph glyph-name="baohanjiufendingdan" unicode="&#59016;" d="M936.138507 437.492537c-20.378109 20.378109-50.945274 20.378109-71.323383 0l-193.592039-193.592039c-15.283582-20.378109-15.283582-45.850746 0-66.228856 20.378109-20.378109 50.945274-20.378109 71.323383-5.094528l193.592039 193.59204c10.189055 10.189055 15.283582 20.378109 15.283583 35.661692 0 15.283582-5.094527 30.567164-15.283583 35.661691zM304.417114 615.800995l193.59204 193.59204c20.378109 20.378109 20.378109 50.945274 0 71.323383-20.378109 20.378109-50.945274 20.378109-71.323383 0L238.188259 682.029851c-20.378109-20.378109-20.378109-50.945274 0-71.323383s50.945274-15.283582 66.228855 5.094527zM528.576318 819.58209L289.133532 580.139303l132.457712-132.457711-402.467662-397.373134c-25.472637-25.472637-25.472637-61.134328 0-86.606965s66.228856-25.472637 91.701493 0l402.467661 397.373134 122.268657-122.268657 239.442786 239.442786-346.427861 341.333334zM992.178308 335.60199c-5.094527-5.094527-5.094527-10.189055-10.189054-10.189055l-193.59204-193.592039c-50.945274-45.850746-122.268657-40.756219-168.119403 5.094527-10.189055 10.189055-20.378109 25.472637-25.472637 45.850746L513.292736 269.373134l-137.552238-132.457711c30.567164-147.741294 163.024876-259.820896 320.955223-259.820896 178.308458 0 326.049751 147.741294 326.049752 326.049752 0 40.756219-10.189055 91.701493-30.567165 132.457711z"  horiz-adv-x="1027" />

    
    <glyph glyph-name="daishendan" unicode="&#59017;" d="M655.36 527.36m-368.64 0a368.64 368.64 0 1 1 737.28 0 368.64 368.64 0 1 1-737.28 0ZM353.28-122.88C158.72-122.88 0 35.84 0 230.4s158.72 353.28 353.28 353.28c194.56 0 353.28-158.72 353.28-353.28s-153.6-353.28-353.28-353.28z m0 583.68c-128 0-230.4-102.4-230.4-230.4s102.4-230.4 230.4-230.4 230.4 102.4 230.4 230.4-102.4 230.4-230.4 230.4z"  horiz-adv-x="1024" />

    
    <glyph glyph-name="bufenfahuo" unicode="&#59018;" d="M911.36 860.16h-358.4V742.4h276.48L220.16 133.12h158.72L911.36 665.6v-276.48H1024V860.16zM716.8 471.04l-117.76 51.2-368.64-174.08v-112.64l-66.56 30.72v112.64l368.64 174.08L409.6 609.28c-20.48 5.12-40.96 5.12-61.44 0l-307.2-138.24C20.48 460.8 0 435.2 0 404.48v-317.44c0-30.72 20.48-56.32 46.08-66.56l307.2-133.12c20.48-5.12 40.96-5.12 56.32 0l307.2 133.12c25.6 15.36 46.08 40.96 46.08 66.56V404.48c-5.12 30.72-20.48 56.32-46.08 66.56z"  horiz-adv-x="1024" />

    
    <glyph glyph-name="dilirundingdan" unicode="&#59019;" d="M0 491.52a220.16 87.04 0 1 1 440.32 0 220.16 87.04 0 1 1-440.32 0ZM220.16 312.32c-122.88 0-220.16 40.96-220.16 92.16v-133.12c0-51.2 97.28-87.04 220.16-87.04s220.16 40.96 220.16 87.04V404.48c5.12-51.2-97.28-92.16-220.16-92.16zM583.68 261.12a220.16 87.04 0 1 1 440.32 0 220.16 87.04 0 1 1-440.32 0ZM803.84 81.92c-122.88 0-220.16 40.96-220.16 87.04v-133.12c0-51.2 97.28-87.04 220.16-87.04s220.16 40.96 220.16 87.04v133.12c0-46.08-97.28-87.04-220.16-87.04zM220.16 92.16C97.28 92.16 0 133.12 0 179.2v-133.12c0-51.2 97.28-87.04 220.16-87.04s220.16 40.96 220.16 87.04V179.2c5.12-46.08-97.28-87.04-220.16-87.04zM1024 640l-66.56 66.56-112.64-112.64V819.2h-87.04v-225.28l-112.64 112.64L578.56 640l225.28-220.16z"  horiz-adv-x="1024" />

    
    <glyph glyph-name="daifahuo" unicode="&#59020;" d="M921.6 778.24h102.4v-788.48h-102.4zM716.8 778.24h102.4v-788.48h-102.4zM373.76 394.24L0 20.48V768zM563.2 394.24l-373.76-373.76V768z"  horiz-adv-x="1024" />

    
    <glyph glyph-name="fahuowancheng" unicode="&#59021;" d="M158.72-122.88c0 476.16 384 860.16 860.16 860.16v-860.16H158.72zM51.2 885.76h317.44v-317.44H51.2zM563.2 885.76h317.44v-317.44H563.2zM51.2 368.64h317.44v-317.44H51.2zM563.2 368.64h317.44v-317.44H563.2z"  horiz-adv-x="1024" />

    
    <glyph glyph-name="fahuozhong" unicode="&#59022;" d="M870.4 92.16l-51.2-102.4h153.6l51.2 102.4zM614.4-10.24h153.6l51.2 102.4h-153.6zM409.6-10.24h153.6l51.2 102.4H460.8zM204.8-10.24h153.6l51.2 102.4H256zM0-10.24h153.6l51.2 102.4H51.2zM204.8 476.16m-204.8 0a204.8 204.8 0 1 1 409.6 0 204.8 204.8 0 1 1-409.6 0ZM768 476.16m-256 0a256 256 0 1 1 512 0 256 256 0 1 1-512 0Z"  horiz-adv-x="1024" />

    
    <glyph glyph-name="dingdanquxiao" unicode="&#59023;" d="M501.76 317.44v-148.48L256 394.24l250.88 220.16V486.4c256 0 266.24-332.8 266.24-332.8-87.04 148.48-158.72 163.84-271.36 163.84zM512 896C230.4 896 0 665.6 0 384v-512h512c281.6 0 512 230.4 512 512 0 148.48 5.12 506.88 5.12 506.88S645.12 896 512 896z m276.48-808.96H768c-25.6 0-46.08 10.24-56.32 35.84-51.2 92.16-92.16 117.76-143.36 128v-81.92c0-25.6-15.36-51.2-40.96-61.44-25.6-10.24-51.2-5.12-71.68 10.24L204.8 348.16c-15.36 10.24-20.48 30.72-20.48 51.2s10.24 35.84 20.48 51.2l250.88 220.16c20.48 15.36 51.2 20.48 71.68 10.24 25.6-10.24 40.96-35.84 40.96-61.44v-71.68c199.68-40.96 261.12-266.24 266.24-394.24 5.12-30.72-15.36-61.44-46.08-66.56z"  horiz-adv-x="1029" />

    
    <glyph glyph-name="lishidingdan" unicode="&#59024;" d="M358.4 506.88c10.24 15.36 25.6 25.6 40.96 40.96H409.6l-35.84 61.44-10.24-5.12c-25.6-15.36-46.08-35.84-66.56-61.44l-5.12-10.24 61.44-35.84 5.12 10.24zM317.44 409.6c0 15.36 5.12 35.84 15.36 56.32l5.12 10.24-61.44 30.72-5.12-10.24c-15.36-30.72-20.48-56.32-25.6-87.04v-10.24h71.68v10.24zM332.8 312.32c-5.12 15.36-10.24 30.72-10.24 46.08v10.24H245.76v-10.24c5.12-30.72 10.24-56.32 20.48-76.8l5.12-10.24 61.44 35.84v5.12zM512 650.24c-35.84 0-71.68-5.12-102.4-20.48l-10.24-5.12 35.84-61.44 10.24 5.12c25.6 5.12 46.08 10.24 66.56 10.24 107.52 0 194.56-87.04 194.56-194.56 0-107.52-87.04-194.56-194.56-194.56-61.44 0-122.88 30.72-158.72 81.92l-5.12 5.12-61.44-35.84 5.12-10.24c51.2-71.68 133.12-112.64 220.16-112.64 148.48 0 266.24 117.76 266.24 266.24 0 148.48-117.76 266.24-266.24 266.24zM527.36 353.28l122.88 10.24v40.96l-107.52 10.24-10.24 133.12h-40.96l-10.24-153.6c0-5.12-5.12-5.12-5.12-15.36 0-10.24 5.12-20.48 10.24-25.6 5.12-5.12 10.24-10.24 25.6-10.24 5.12 5.12 10.24 5.12 15.36 10.24zM512 896C230.4 896 0 665.6 0 384v-512h512c281.6 0 512 230.4 512 512 0 148.48 5.12 506.88 5.12 506.88S645.12 896 512 896z m0-829.44c-102.4 0-199.68 51.2-261.12 138.24l-5.12 10.24c-5.12 5.12-5.12 10.24-5.12 20.48-5.12 5.12-10.24 10.24-10.24 15.36l-5.12 10.24c-15.36 30.72-20.48 61.44-25.6 97.28v10.24 20.48c0 5.12-5.12 10.24 0 20.48v10.24c5.12 30.72 10.24 66.56 30.72 102.4l5.12 10.24c-5.12 5.12 0 10.24 10.24 15.36 0 5.12 5.12 10.24 5.12 15.36l5.12 10.24c20.48 30.72 51.2 56.32 81.92 76.8l10.24 5.12s10.24 5.12 15.36 5.12c5.12 5.12 10.24 10.24 20.48 10.24l10.24 5.12c35.84 20.48 76.8 25.6 117.76 25.6 174.08 0 317.44-143.36 317.44-317.44 0-174.08-143.36-317.44-317.44-317.44z"  horiz-adv-x="1029" />

    
    <glyph glyph-name="jiajidingdan" unicode="&#59025;" d="M716.8 435.2l-250.88-343.04c-5.12-10.24-25.6-5.12-20.48 10.24l35.84 215.04H317.44c-10.24 0-15.36 10.24-10.24 20.48l256 343.04c5.12 10.24 25.6 5.12 20.48-10.24l-46.08-215.04h163.84c15.36-5.12 20.48-15.36 15.36-20.48zM512 896C373.76 896 245.76 839.68 153.6 747.52h-5.12V742.4C56.32 650.24 0 522.24 0 384v-512h512c281.6 0 512 230.4 512 512 0 148.48 5.12 506.88 5.12 506.88S645.12 896 512 896z m261.12-506.88l-250.88-343.04c-15.36-20.48-40.96-35.84-66.56-35.84-10.24 0-25.6 0-35.84 5.12-35.84 15.36-56.32 56.32-46.08 92.16l25.6 133.12H317.44c-30.72 0-61.44 20.48-76.8 46.08-15.36 30.72-10.24 61.44 10.24 87.04l256 337.92c25.6 30.72 66.56 40.96 102.4 25.6 35.84-10.24 56.32-46.08 46.08-87.04l-25.6-128h76.8c30.72 0 61.44-15.36 76.8-46.08 10.24-25.6 5.12-61.44-10.24-87.04z"  horiz-adv-x="1029" />

    
    <glyph glyph-name="weibiaoti-2" unicode="&#59026;" d="M117.76 778.24m-117.76 0a117.76 117.76 0 1 1 235.52 0 117.76 117.76 0 1 1-235.52 0ZM512 778.24m-117.76 0a117.76 117.76 0 1 1 235.52 0 117.76 117.76 0 1 1-235.52 0ZM906.24 778.24m-117.76 0a117.76 117.76 0 1 1 235.52 0 117.76 117.76 0 1 1-235.52 0ZM117.76 384m-117.76 0a117.76 117.76 0 1 1 235.52 0 117.76 117.76 0 1 1-235.52 0ZM512 384m-117.76 0a117.76 117.76 0 1 1 235.52 0 117.76 117.76 0 1 1-235.52 0ZM906.24 384m-117.76 0a117.76 117.76 0 1 1 235.52 0 117.76 117.76 0 1 1-235.52 0ZM117.76-10.24m-117.76 0a117.76 117.76 0 1 1 235.52 0 117.76 117.76 0 1 1-235.52 0ZM512-10.24m-117.76 0a117.76 117.76 0 1 1 235.52 0 117.76 117.76 0 1 1-235.52 0ZM906.24-10.24m-117.76 0a117.76 117.76 0 1 1 235.52 0 117.76 117.76 0 1 1-235.52 0ZM517.12 389.12m-394.24 0a394.24 394.24 0 1 1 788.48 0 394.24 394.24 0 1 1-788.48 0Z"  horiz-adv-x="1024" />

    
    <glyph glyph-name="fulirundingdan" unicode="&#59027;" d="M445.44 711.68c0-51.2-97.28-87.04-220.16-87.04C97.28 619.52 0 660.48 0 711.68s97.28 87.04 220.16 87.04 225.28-40.96 225.28-87.04zM220.16 532.48C97.28 532.48 0 573.44 0 619.52V486.4c0-51.2 97.28-87.04 220.16-87.04S440.32 440.32 440.32 486.4V619.52c5.12-46.08-97.28-87.04-220.16-87.04zM1024 711.68c0-51.2-97.28-87.04-220.16-87.04s-220.16 40.96-220.16 87.04c0 51.2 97.28 87.04 220.16 87.04s220.16-40.96 220.16-87.04zM803.84 532.48c-122.88 0-220.16 40.96-220.16 87.04V486.4c0-51.2 97.28-87.04 220.16-87.04S1024 440.32 1024 486.4V619.52c0-46.08-97.28-87.04-220.16-87.04zM220.16 312.32c-122.88 0-220.16 35.84-220.16 87.04v-133.12c0-51.2 97.28-87.04 220.16-87.04s220.16 40.96 220.16 87.04V399.36c5.12-51.2-97.28-87.04-220.16-87.04zM957.44 240.64L844.8 128v225.28h-87.04V128l-112.64 112.64-66.56-66.56 225.28-220.16 220.16 220.16z"  horiz-adv-x="1024" />

    
    <glyph glyph-name="quanbu" unicode="&#59028;" d="M117.76 778.24m-117.76 0a117.76 117.76 0 1 1 235.52 0 117.76 117.76 0 1 1-235.52 0ZM512 778.24m-117.76 0a117.76 117.76 0 1 1 235.52 0 117.76 117.76 0 1 1-235.52 0ZM906.24 778.24m-117.76 0a117.76 117.76 0 1 1 235.52 0 117.76 117.76 0 1 1-235.52 0ZM117.76 384m-117.76 0a117.76 117.76 0 1 1 235.52 0 117.76 117.76 0 1 1-235.52 0ZM512 384m-117.76 0a117.76 117.76 0 1 1 235.52 0 117.76 117.76 0 1 1-235.52 0ZM906.24 384m-117.76 0a117.76 117.76 0 1 1 235.52 0 117.76 117.76 0 1 1-235.52 0ZM117.76-10.24m-117.76 0a117.76 117.76 0 1 1 235.52 0 117.76 117.76 0 1 1-235.52 0ZM512-10.24m-117.76 0a117.76 117.76 0 1 1 235.52 0 117.76 117.76 0 1 1-235.52 0ZM906.24-10.24m-117.76 0a117.76 117.76 0 1 1 235.52 0 117.76 117.76 0 1 1-235.52 0ZM517.12 389.12m-394.24 0a394.24 394.24 0 1 1 788.48 0 394.24 394.24 0 1 1-788.48 0Z"  horiz-adv-x="1024" />

    
    <glyph glyph-name="yizuofei" unicode="&#59029;" d="M71.68-128H512c281.6 0 512 230.4 512 512V824.32L71.68-128zM199.68 788.48c-25.6-20.48-51.2-46.08-71.68-71.68l322.56-322.56 71.68 71.68-322.56 322.56zM92.16 675.84c-20.48-30.72-35.84-61.44-51.2-92.16l296.96-296.96L409.6 358.4 92.16 675.84zM122.88 71.68l71.68 71.68L0 337.92v-143.36l122.88-122.88zM885.76 829.44L947.2 890.88H819.2l66.56-61.44zM20.48 532.48C10.24 491.52 5.12 450.56 0 409.6L230.4 179.2 307.2 250.88 20.48 532.48zM747.52 896h-143.36l174.08-174.08L849.92 793.6l-102.4 102.4zM0 117.76v-174.08l87.04 87.04L0 117.76zM527.36 896H512c-40.96 0-76.8-5.12-117.76-15.36L665.6 614.4l71.68 71.68L527.36 896zM343.04 865.28c-35.84-10.24-71.68-25.6-102.4-46.08l317.44-317.44 71.68 71.68L343.04 865.28z"  horiz-adv-x="1024" />

    
    <glyph glyph-name="youliuyan" unicode="&#59030;" d="M245.76 476.16h532.48c20.48 0 40.96 20.48 40.96 40.96s-20.48 40.96-40.96 40.96H245.76c-20.48 0-40.96-20.48-40.96-40.96s20.48-40.96 40.96-40.96zM778.24 291.84H245.76c-20.48 0-40.96-20.48-40.96-40.96s20.48-40.96 40.96-40.96h532.48c20.48 0 40.96 20.48 40.96 40.96s-20.48 40.96-40.96 40.96zM245.76 343.04h378.88c20.48 0 40.96 20.48 40.96 40.96s-20.48 40.96-40.96 40.96H245.76c-20.48 0-40.96-20.48-40.96-40.96s20.48-40.96 40.96-40.96zM512 829.44C230.4 829.44 0 629.76 0 384c0-117.76 51.2-225.28 138.24-307.2 40.96-35.84-138.24-143.36-138.24-143.36h512c281.6 0 512 199.68 512 450.56 0 245.76-230.4 445.44-512 445.44z m199.68-445.44c0-15.36-5.12-30.72-15.36-46.08h81.92c46.08 0 87.04-40.96 87.04-87.04s-40.96-87.04-87.04-87.04H245.76c-46.08 0-87.04 40.96-87.04 87.04 0 25.6 10.24 51.2 30.72 66.56-20.48 15.36-30.72 40.96-30.72 66.56s10.24 51.2 30.72 66.56c-20.48 15.36-30.72 40.96-30.72 66.56 0 46.08 40.96 87.04 87.04 87.04h532.48c46.08 0 87.04-40.96 87.04-87.04s-40.96-87.04-87.04-87.04h-81.92c10.24-15.36 15.36-30.72 15.36-46.08z"  horiz-adv-x="1024" />

    
    <glyph glyph-name="yichang" unicode="&#59031;" d="M547.84 481.28l-168.96-276.48H517.12l-35.84-209.92 168.96 276.48H517.12zM983.04-40.96h-117.76v317.44a343.04 343.04 0 0 1-686.08 0v-317.44H46.08c-25.6 0-46.08-20.48-46.08-46.08s25.6-40.96 51.2-40.96h936.96c25.6 0 46.08 20.48 46.08 46.08s-25.6 40.96-51.2 40.96z m-302.08 296.96L512-25.6c-5.12-10.24-20.48-15.36-30.72-15.36h-10.24c-15.36 5.12-25.6 20.48-20.48 40.96l25.6 168.96H378.88c-15.36 0-25.6 5.12-30.72 20.48s-5.12 25.6 0 35.84L517.12 501.76c10.24 15.36 25.6 20.48 40.96 15.36 15.36-5.12 25.6-20.48 20.48-40.96l-25.6-168.96h92.16c15.36 0 25.6-5.12 30.72-20.48s10.24-20.48 5.12-30.72zM808.96 788.48c15.36-10.24 20.48-30.72 10.24-46.08l-61.44-107.52-56.32 35.84 61.44 107.52c10.24 15.36 30.72 20.48 46.08 10.24zM522.24 865.28c20.48 0 35.84-15.36 35.84-35.84v-117.76H486.4V834.56c0 15.36 15.36 30.72 35.84 30.72zM240.64 788.48c15.36 10.24 35.84 5.12 46.08-10.24l61.44-107.52-61.44-35.84L225.28 742.4c-5.12 15.36 0 35.84 15.36 46.08zM30.72 578.56c5.12 10.24 10.24 15.36 20.48 15.36s15.36 0 25.6-5.12l107.52-61.44-35.84-56.32L40.96 532.48c-15.36 10.24-20.48 30.72-10.24 46.08zM1018.88 578.56c10.24-15.36 5.12-35.84-10.24-46.08l-107.52-61.44-30.72 56.32L977.92 588.8c10.24 10.24 30.72 5.12 40.96-10.24z"  horiz-adv-x="1034" />

    
    <glyph glyph-name="weishengcheng" unicode="&#59032;" d="M409.6 189.44c-20.48 15.36-40.96 35.84-51.2 61.44-15.36 25.6-20.48 51.2-20.48 81.92 0 30.72 5.12 56.32 20.48 81.92 10.24 20.48 25.6 46.08 51.2 61.44 20.48 15.36 40.96 25.6 66.56 30.72v-128L634.88 537.6 476.16 691.2v-107.52c-40.96-5.12-76.8-20.48-107.52-40.96C332.8 517.12 307.2 486.4 286.72 450.56c-20.48-35.84-30.72-76.8-30.72-117.76 0-40.96 10.24-81.92 30.72-122.88 20.48-35.84 46.08-66.56 81.92-87.04 35.84-25.6 71.68-40.96 112.64-40.96h10.24v76.8h-5.12c-30.72 0-56.32 10.24-76.8 30.72zM691.2 307.2v-5.12c-5.12-30.72-15.36-51.2-30.72-71.68l-5.12-5.12 56.32-56.32 5.12 5.12c25.6 35.84 46.08 76.8 51.2 122.88v10.24h-76.8zM614.4 184.32c-20.48-15.36-46.08-25.6-76.8-30.72h-5.12V76.8h10.24c46.08 5.12 87.04 25.6 128 51.2l5.12 5.12-56.32 56.32-5.12-5.12zM691.2 358.4v-5.12H768v10.24c-5.12 46.08-25.6 87.04-51.2 122.88l-5.12 5.12-56.32-51.2 5.12-5.12c15.36-20.48 25.6-46.08 30.72-76.8zM512 896C373.76 896 245.76 839.68 153.6 747.52h-5.12V742.4C56.32 650.24 0 522.24 0 384v-512h512c281.6 0 512 230.4 512 512 0 148.48 5.12 506.88 5.12 506.88S645.12 896 512 896z m317.44-604.16c-5.12-56.32-30.72-107.52-61.44-153.6l-5.12-5.12c-5.12-10.24-15.36-15.36-25.6-20.48-5.12-10.24-10.24-20.48-20.48-30.72l-5.12-5.12c-46.08-35.84-97.28-56.32-153.6-61.44h-20.48c-10.24 0-15.36 0-25.6 5.12-5.12-5.12-15.36-5.12-20.48-5.12H476.16c-51.2 5.12-97.28 25.6-143.36 56.32-40.96 25.6-76.8 66.56-97.28 107.52-25.6 51.2-40.96 97.28-40.96 153.6 0 51.2 15.36 102.4 35.84 148.48 25.6 46.08 61.44 81.92 102.4 112.64 25.6 15.36 51.2 30.72 81.92 40.96V691.2c0 25.6 15.36 46.08 35.84 56.32 20.48 10.24 51.2 5.12 66.56-15.36l158.72-158.72c5.12-5.12 10.24-15.36 15.36-25.6 10.24 0 15.36 5.12 25.6 5.12 15.36 0 35.84-10.24 46.08-25.6l5.12-5.12c35.84-46.08 56.32-97.28 61.44-153.6v-10.24c0-10.24 0-20.48-5.12-30.72 5.12-10.24 5.12-20.48 5.12-30.72v-5.12z"  horiz-adv-x="1029" />

    
    <glyph glyph-name="lanjie" unicode="&#59012;" d="M868.497639 475.842068l-50.928234-101.856469c-12.732059-31.830146-38.196176-25.464117-44.562205 6.36603L652.052644 851.437795c-19.098088 82.758381-133.686615 38.196176-114.588527-38.196176l70.026322-324.667493c19.098088-82.758381-19.098088-95.490439-44.562205-12.732058L441.973678 813.241619C429.241619 845.071766 397.411473 864.169854 365.581327 851.437795c-31.830146-12.732059-44.562205-44.562205-38.196176-76.392351l114.588527-343.765581c25.464117-82.758381-12.732059-89.12441-44.562205-19.098088l-127.320585 273.739259c-38.196176 76.392351-152.784703 38.196176-120.954557-38.196176l159.150732-331.033522c38.196176-76.392351 0-82.758381-50.928234-19.098088L149.136331 437.645892c-19.098088 25.464117-50.928234 38.196176-82.75838 31.830146-25.464117-6.366029-31.830146-38.196176-12.732059-70.026322 152.784703-267.37323 222.811025-413.791903 222.811025-413.791903 146.418673-235.543083 464.720137-50.928234 528.38043 70.026323l184.614849 413.791902c19.098088 50.928234-82.758381 82.758381-120.954557 6.36603z"  horiz-adv-x="1024" />

    
    <glyph glyph-name="shouru" unicode="&#59013;" d="M384 896C172.8 896 0 812.8 0 704c0-102.4 172.8-192 384-192s384 83.2 384 192-172.8 192-384 192z m0 0M505.6 467.2c-38.4-6.4-83.2-12.8-121.6-12.8-179.2 0-332.8 64-371.2 147.2-6.4-12.8-12.8-25.6-12.8-38.4 0-102.4 172.8-192 384-192h32c25.6 38.4 51.2 70.4 89.6 96z m249.6 51.2c6.4 12.8 12.8 32 12.8 44.8 0 12.8-6.4 25.6-12.8 44.8-12.8-32-44.8-57.6-83.2-83.2h19.2c25.6 0 44.8 0 64-6.4z m0 0M384 332.8C204.8 332.8 51.2 396.8 12.8 480c-6.4-12.8-12.8-25.6-12.8-44.8 0-102.4 160-185.6 364.8-192 6.4 32 12.8 57.6 25.6 83.2H384z m0 0M364.8 204.8C192 211.2 51.2 268.8 12.8 352c-6.4-12.8-12.8-25.6-12.8-38.4 0-102.4 166.4-185.6 371.2-192-6.4 25.6-6.4 44.8-6.4 70.4v12.8z m0 0M12.8 230.4c-6.4-12.8-12.8-32-12.8-44.8 0-102.4 172.8-192 384-192h44.8c-19.2 25.6-32 51.2-44.8 83.2-185.6 6.4-332.8 70.4-371.2 153.6z m0 0M460.8-38.4c-25.6 0-51.2-6.4-76.8-6.4-179.2 0-332.8 64-371.2 147.2-6.4-12.8-12.8-25.6-12.8-38.4 0-102.4 172.8-192 384-192 64 0 121.6 6.4 172.8 19.2-32 19.2-70.4 38.4-96 70.4zM710.4 505.6c-172.8 0-313.6-140.8-313.6-313.6s140.8-313.6 313.6-313.6S1024 19.2 1024 192s-140.8 313.6-313.6 313.6z m192-332.8c0-6.4-6.4-12.8-12.8-12.8h-147.2v-147.2c0-6.4-6.4-12.8-12.8-12.8h-44.8c-6.4 0-12.8 6.4-12.8 12.8v147.2H531.2c-6.4 0-12.8 6.4-12.8 12.8v44.8c0 6.4 6.4 12.8 12.8 12.8h147.2V371.2c0 6.4 6.4 12.8 12.8 12.8h44.8c6.4 0 12.8-6.4 12.8-12.8v-147.2H896c6.4 0 12.8-6.4 12.8-12.8v-38.4z"  horiz-adv-x="1024" />

    
    <glyph glyph-name="zhichu" unicode="&#59014;" d="M384 896C172.8 896 0 812.8 0 704c0-102.4 172.8-192 384-192s384 83.2 384 192-172.8 192-384 192z m0 0M505.6 467.2c-38.4-6.4-83.2-12.8-121.6-12.8-179.2 0-332.8 64-371.2 147.2-6.4-12.8-12.8-25.6-12.8-38.4 0-102.4 172.8-192 384-192h32c25.6 38.4 51.2 70.4 89.6 96z m249.6 51.2c6.4 12.8 12.8 32 12.8 44.8 0 12.8-6.4 25.6-12.8 44.8-12.8-32-44.8-57.6-83.2-83.2h19.2c25.6 0 44.8 0 64-6.4z m0 0M384 332.8C204.8 332.8 51.2 396.8 12.8 480c-6.4-12.8-12.8-25.6-12.8-44.8 0-102.4 160-185.6 364.8-192 6.4 32 12.8 57.6 25.6 83.2H384z m0 0M364.8 204.8C192 211.2 51.2 268.8 12.8 352c-6.4-12.8-12.8-25.6-12.8-38.4 0-102.4 166.4-185.6 371.2-192-6.4 25.6-6.4 44.8-6.4 70.4v12.8z m0 0M12.8 230.4c-6.4-12.8-12.8-32-12.8-44.8 0-102.4 172.8-192 384-192h44.8c-19.2 25.6-32 51.2-44.8 83.2-185.6 6.4-332.8 70.4-371.2 153.6z m0 0M460.8-38.4c-25.6 0-51.2-6.4-76.8-6.4-179.2 0-332.8 64-371.2 147.2-6.4-12.8-12.8-25.6-12.8-38.4 0-102.4 172.8-192 384-192 64 0 121.6 6.4 172.8 19.2-32 19.2-70.4 38.4-96 70.4zM710.4 505.6c-172.8 0-313.6-140.8-313.6-313.6s140.8-313.6 313.6-313.6S1024 19.2 1024 192s-140.8 313.6-313.6 313.6z m192-332.8c0-6.4-6.4-12.8-12.8-12.8H531.2c-6.4 0-12.8 6.4-12.8 12.8v44.8c0 6.4 6.4 12.8 12.8 12.8h358.4c6.4 0 12.8-6.4 12.8-12.8v-44.8z"  horiz-adv-x="1024" />

    
    <glyph glyph-name="chaifenanniu" unicode="&#58945;" d="M211.2 531.2L0 320l211.2-204.8V262.4h153.6v128H211.2zM1024 320l-211.2 211.2v-140.8h-153.6v-128h153.6v-147.2zM435.2 627.2v-614.4h147.2V627.2H505.6z"  horiz-adv-x="1024" />

    
    <glyph glyph-name="neibubiaozhu" unicode="&#58970;" d="M512 384m-185.6 0a185.6 185.6 0 1 1 371.2 0 185.6 185.6 0 1 1-371.2 0ZM979.2 428.8h-51.2c-19.2 192-172.8 345.6-371.2 371.2V851.2C556.8 876.8 537.6 896 512 896s-44.8-19.2-44.8-44.8v-51.2c-192-19.2-345.6-172.8-371.2-371.2H44.8c-25.6 0-44.8-19.2-44.8-44.8 0-25.6 19.2-44.8 44.8-44.8h51.2c19.2-192 172.8-345.6 371.2-371.2v-51.2c0-25.6 19.2-44.8 44.8-44.8s44.8 19.2 44.8 44.8v51.2c192 19.2 345.6 172.8 371.2 371.2h51.2c25.6 0 44.8 19.2 44.8 44.8 0 25.6-19.2 44.8-44.8 44.8z m-236.8-275.2c-64-64-147.2-96-230.4-96-179.2 0-326.4 147.2-326.4 326.4S332.8 710.4 512 710.4s326.4-147.2 326.4-326.4c0-89.6-32-166.4-96-230.4z"  horiz-adv-x="1024" />

    
    <glyph glyph-name="tongyi" unicode="&#58990;" d="M1024 659.2L339.2-12.8c-6.4-6.4-19.2-6.4-25.6 0L0 313.6v12.8L44.8 384c0 6.4 6.4 6.4 12.8 0l249.6-192c12.8 0 25.6 0 32 6.4L960 716.8c6.4 6.4 12.8 6.4 12.8 0l51.2-44.8v-12.8z"  horiz-adv-x="1024" />

    
    <glyph glyph-name="biaojifahuo" unicode="&#58999;" d="M953.6 582.4L870.4 768c-6.4 19.2-25.6 32-51.2 32H198.4c-19.2 0-38.4-12.8-44.8-32L70.4 582.4c-6.4-6.4-6.4-12.8-6.4-19.2v-531.2c0-32 25.6-57.6 57.6-57.6h787.2c32 0 57.6 25.6 57.6 57.6V556.8c-6.4 12.8-6.4 19.2-12.8 25.6zM524.8 486.4l153.6-185.6c6.4-6.4 6.4-12.8 0-19.2 0-6.4-6.4-6.4-12.8-6.4H576c-6.4 0-19.2-6.4-19.2-12.8v-160c0-6.4 0-6.4-6.4-12.8 0 0-6.4-6.4-12.8-6.4h-57.6c-6.4 0-19.2 6.4-19.2 12.8V262.4c0 6.4 0 6.4-6.4 12.8 0 0-6.4 6.4-12.8 6.4H358.4c-6.4 0-12.8 0-12.8 6.4v19.2l153.6 185.6c0-6.4 6.4 0 12.8 0s6.4-6.4 12.8-6.4z m332.8 102.4H166.4c-6.4 0-6.4 0-12.8 6.4v12.8l57.6 128c0 6.4 6.4 6.4 12.8 6.4h569.6c6.4 0 6.4 0 12.8-6.4l57.6-128v-12.8c0-6.4-6.4-6.4-6.4-6.4z m0 0"  horiz-adv-x="1024" />

    
    <glyph glyph-name="neibuxiaoxi" unicode="&#59003;" d="M512 832C230.4 832 0 633.6 0 384c0-115.2 51.2-224 140.8-307.2C179.2 38.4 0-64 0-64h512c281.6 0 512 198.4 512 448s-230.4 448-512 448zM249.6 313.6c-38.4 0-70.4 32-70.4 70.4S211.2 460.8 256 460.8s70.4-32 70.4-76.8-32-70.4-76.8-70.4z m243.2-19.2c-51.2 0-96 38.4-96 89.6 0 51.2 38.4 89.6 89.6 89.6s96-38.4 96-89.6c0-51.2-38.4-89.6-89.6-89.6z m275.2-19.2c-64 0-108.8 51.2-108.8 108.8s51.2 108.8 108.8 108.8c64 0 108.8-51.2 108.8-108.8S832 275.2 768 275.2z"  horiz-adv-x="1024" />

    
    <glyph glyph-name="hedan" unicode="&#59004;" d="M96-64h838.4v-64H96zM1024 6.4H0v102.4c0 76.8 57.6 134.4 134.4 134.4h262.4V512c-64 38.4-102.4 102.4-102.4 179.2C294.4 806.4 384 896 492.8 896c108.8 0 198.4-89.6 198.4-204.8 0-70.4-38.4-140.8-96-179.2v-268.8H896c76.8 0 134.4-64 134.4-134.4v-102.4z"  horiz-adv-x="1030" />

    
    <glyph glyph-name="lianximaijia" unicode="&#59005;" d="M819.2 166.4c-51.2 44.8-102.4 83.2-166.4 102.4 32 19.2 64 38.4 89.6 64 64 64 96 147.2 96 230.4 0 89.6-32 172.8-96 230.4C678.4 857.6 595.2 896 505.6 896 422.4 896 332.8 864 275.2 800c-64-64-96-147.2-96-230.4 0-89.6 32-172.8 96-230.4 25.6-25.6 57.6-51.2 89.6-64-57.6-25.6-115.2-57.6-166.4-102.4-76.8-83.2-128-153.6-128-268.8 0-19.2 12.8-25.6 25.6-25.6h825.6c19.2 0 25.6 12.8 25.6 25.6 0 108.8-44.8 179.2-128 262.4z m-332.8 128c-140.8 12.8-256 128-256 275.2C230.4 723.2 352 844.8 505.6 844.8s275.2-121.6 275.2-275.2c0-140.8-108.8-262.4-256-275.2h-38.4zM588.8 448c-25.6-6.4-51.2-12.8-76.8-12.8-25.6 0-51.2 6.4-76.8 12.8h-6.4c-6.4 0-12.8-6.4-12.8-12.8 0-12.8 6.4-25.6 19.2-25.6 25.6-12.8 51.2-19.2 76.8-19.2 25.6 0 51.2 6.4 76.8 12.8 12.8 0 19.2 12.8 19.2 25.6v12.8c-6.4 6.4-12.8 12.8-19.2 6.4z"  horiz-adv-x="1024" />

    
    <glyph glyph-name="xiugai" unicode="&#59006;" d="M117.664596 37.36646l69.962733 254.409938 407.055901 400.695652 184.447205-178.086957-400.695652-407.0559-260.770187-69.962733zM54.062112-7.15528h922.236025V-128H54.062112zM931.776398 667.031056L836.372671 571.627329l-190.807454 184.447205L747.329193 857.838509c50.881988 50.881988 133.565217 50.881988 184.447205 0 50.881988-57.242236 50.881988-139.925466 0-190.807453z"  horiz-adv-x="1024" />

    
    <glyph glyph-name="xiugaiwuliu" unicode="&#59007;" d="M403.2 588.8H185.6C128 588.8 0 409.6 0 339.2v-198.4c0-19.2 19.2-38.4 38.4-38.4h38.4c6.4 70.4 70.4 121.6 147.2 121.6 76.8 0 134.4-51.2 147.2-121.6h38.4c19.2 0 38.4 19.2 38.4 38.4V550.4c-6.4 19.2-25.6 38.4-44.8 38.4zM332.8 320H89.6v19.2c0 51.2 76.8 160 108.8 160h134.4V320zM121.6 89.6a96 89.6 0 1 1 192 0 96 89.6 0 1 1-192 0ZM755.2 179.2c-51.2 0-96-44.8-96-96 0-57.6 44.8-96 96-96s96 44.8 96 96-38.4 96-96 96zM646.4 358.4v-51.2h44.8l211.2 211.2-44.8 44.8zM972.8 691.2H556.8c-32 0-57.6-25.6-57.6-51.2v-480c0-25.6 25.6-51.2 57.6-51.2h51.2c6.4 70.4 70.4 121.6 147.2 121.6 70.4 0 134.4-51.2 147.2-121.6h70.4c32 0 51.2 25.6 51.2 57.6V640c0 25.6-19.2 51.2-51.2 51.2z m-32-204.8l-211.2-211.2c-6.4-12.8-25.6-12.8-38.4-12.8h-44.8c-25.6 0-51.2 25.6-51.2 51.2v44.8c0 12.8 6.4 25.6 12.8 38.4l211.2 211.2c19.2 19.2 51.2 19.2 70.4 0l44.8-44.8c12.8-6.4 12.8-25.6 12.8-38.4s0-32-6.4-38.4z"  horiz-adv-x="1024" />

    
    <glyph glyph-name="zuofei" unicode="&#59008;" d="M512 896C230.4 896 0 665.6 0 384s230.4-512 512-512 512 230.4 512 512-230.4 512-512 512z m0-115.2c89.6 0 166.4-25.6 230.4-76.8L192 153.6c-44.8 64-76.8 147.2-76.8 230.4 0 217.6 179.2 396.8 396.8 396.8z m0-793.6c-89.6 0-166.4 25.6-230.4 76.8L832 614.4c44.8-64 76.8-147.2 76.8-230.4 0-217.6-179.2-396.8-396.8-396.8z"  horiz-adv-x="1024" />

    
    <glyph glyph-name="shanchu2" unicode="&#59009;" d="M870.4 115.2c32-32 32-76.8 0-108.8s-76.8-32-108.8 0l-256 256-256-256c-32-32-76.8-32-108.8 0s-32 76.8 0 108.8l256 256-256 256c-32 32-32 76.8 0 108.8s76.8 32 108.8 0l256-256 256 256c32 32 76.8 32 108.8 0s32-76.8 0-108.8l-256-256 256-256z"  horiz-adv-x="1024" />

    
    <glyph glyph-name="yichangchuli" unicode="&#59010;" d="M985.6-38.4h-115.2v320c0 192-153.6 345.6-345.6 345.6-192 0-345.6-153.6-345.6-345.6v-320H44.8c-25.6 0-44.8-19.2-44.8-44.8s25.6-44.8 51.2-44.8h934.4c25.6 0 44.8 19.2 44.8 44.8s-19.2 44.8-44.8 44.8zM825.6 742.4c6.4 12.8 6.4 38.4-12.8 44.8-12.8 6.4-38.4 6.4-44.8-12.8l-64-108.8 57.6-25.6 64 102.4zM563.2 832c0 19.2-19.2 32-38.4 32-19.2 6.4-38.4-12.8-38.4-32v-121.6h70.4V832zM288 640l57.6 32-64 108.8c-6.4 12.8-25.6 19.2-38.4 6.4-19.2-6.4-25.6-25.6-12.8-44.8L288 640zM44.8 531.2l102.4-64 32 57.6-102.4 64C70.4 595.2 57.6 595.2 51.2 595.2c-6.4 0-12.8-6.4-19.2-12.8-6.4-19.2-6.4-38.4 12.8-51.2zM1004.8 531.2c12.8 6.4 19.2 32 12.8 44.8-6.4 12.8-32 19.2-44.8 12.8l-102.4-64 32-51.2 102.4 57.6z"  horiz-adv-x="1030" />

    
    <glyph glyph-name="yewubiaozhu" unicode="&#59011;" d="M448 320h128v-448H448zM512 896C364.8 896 243.2 774.4 243.2 620.8s121.6-268.8 275.2-268.8 268.8 121.6 268.8 268.8C787.2 774.4 665.6 896 512 896zM409.6 704c-25.6 0-44.8 19.2-44.8 51.2 0 25.6 19.2 44.8 44.8 44.8 25.6 0 44.8-19.2 44.8-44.8 6.4-32-19.2-51.2-44.8-51.2z"  horiz-adv-x="1024" />

    
    <glyph glyph-name="wanchengbuzhou" unicode="&#59002;" d="M512 896c281.6 0 512-230.4 512-512s-230.4-512-512-512-512 230.4-512 512 230.4 512 512 512z m275.2-320c-12.8 12.8-25.6 19.2-44.8 19.2-19.2 0-32-6.4-44.8-19.2L428.8 320 326.4 422.4H320c-25.6 25.6-64 19.2-89.6-6.4-19.2-25.6-19.2-64 6.4-89.6L377.6 192H384c12.8-12.8 32-12.8 51.2-12.8 19.2 0 38.4 0 51.2 19.2l300.8 294.4 6.4 6.4c19.2 19.2 19.2 57.6-6.4 76.8z m0 0"  horiz-adv-x="1024" />

    
    <glyph glyph-name="dingwei" unicode="&#59001;" d="M752.629769 867.002068l248.750517-242.372299c25.512874-25.512874 31.891092-63.782184 6.378219-95.673275-25.512874-25.512874-63.782184-31.891092-95.673276-6.378219l-6.378218 6.378219-25.512874 19.134655-255.128735-357.18023 76.53862-76.53862c25.512874-25.512874 19.134655-70.160402-6.378218-95.673276-25.512874-19.134655-63.782184-19.134655-89.295057 0L146.699023 490.687183c-25.512874 25.512874-19.134655 70.160402 6.378218 89.295058 25.512874 19.134655 63.782184 19.134655 89.295058 0L318.910919 503.44362l357.18023 255.128735-19.134655 19.134656c-25.512874 25.512874-31.891092 63.782184-6.378219 95.673275 25.512874 25.512874 63.782184 31.891092 95.673276 6.378219 0-6.378218 0-6.378218 6.378218-12.756437zM376.314885 159.019827L287.019827 254.693103c-76.538621-89.295057-191.346552-223.237643-216.859425-248.750517-31.891092-38.26931-57.403965-82.916839-70.160402-127.564368 44.647529 12.756437 89.295057 38.26931 127.564368 70.160403 31.891092 19.134655 159.45546 133.942586 248.750517 210.481206z"  horiz-adv-x="1027" />

    
    <glyph glyph-name="zhiding" unicode="&#58998;" d="M512 896C228.693333 896 0 667.306667 0 384s228.693333-512 512-512 512 228.693333 512 512S795.306667 896 512 896z m290.133333-669.013333c-13.653333-13.653333-34.133333-13.653333-47.786666 0L512 469.333333l-242.346667-242.346666c-13.653333-13.653333-34.133333-13.653333-47.786666 0s-13.653333 34.133333 0 47.786666l266.24 266.24c13.653333 13.653333 34.133333 13.653333 47.786666 0l266.24-266.24c13.653333-13.653333 13.653333-34.133333 0-47.786666z"  horiz-adv-x="1024" />

    
    <glyph glyph-name="buzhoushalou" unicode="&#59000;" d="M883.2-44.8c-12.8 275.2-134.4 384-217.6 428.8 172.8 108.8 211.2 339.2 217.6 422.4 19.2 0 38.4 19.2 38.4 44.8 0 25.6-19.2 44.8-44.8 44.8H192c-25.6 0-44.8-19.2-44.8-44.8 0-19.2 12.8-32 32-38.4 6.4-83.2 44.8-320 224-422.4-89.6-51.2-211.2-160-217.6-435.2-19.2-6.4-38.4-19.2-38.4-44.8 0-19.2 19.2-38.4 44.8-38.4h691.2c25.6 0 44.8 19.2 44.8 44.8 0 19.2-19.2 38.4-44.8 38.4zM556.8 428.8c128 12.8 198.4 172.8 211.2 211.2v25.6l-19.2 19.2h-25.6l-19.2-19.2c-12.8-25.6-70.4-172.8-166.4-166.4-108.8 6.4-172.8 160-172.8 160 0 6.4-6.4 12.8-19.2 19.2H320c-6.4 0-12.8-6.4-19.2-19.2v-25.6c12.8-19.2 76.8-172.8 211.2-198.4v-377.6c-115.2 0-211.2-25.6-256-44.8 25.6 243.2 153.6 313.6 211.2 332.8 19.2 6.4 25.6 19.2 25.6 38.4s-6.4 32-25.6 38.4C300.8 499.2 256 723.2 243.2 812.8h576c-12.8-89.6-51.2-313.6-224-384-19.2-12.8-25.6-25.6-25.6-44.8 0-19.2 12.8-32 32-38.4 57.6-19.2 185.6-89.6 211.2-339.2-83.2 32-166.4 44.8-256 51.2V428.8z"  horiz-adv-x="1024" />

    
    <glyph glyph-name="dingdanhuoqu" unicode="&#58989;" d="M921.6 780.8c-12.8 12.8-32 19.2-51.2 19.2h-153.6c-6.4 32-38.4 57.6-70.4 57.6H569.6C563.2 883.2 537.6 896 512 896s-51.2-12.8-57.6-38.4H377.6c-32 0-64-25.6-70.4-57.6H147.2c-19.2 0-38.4-6.4-51.2-19.2-6.4-12.8-19.2-32-19.2-51.2v-780.8c0-38.4 32-70.4 70.4-70.4h716.8c38.4 0 70.4 32 76.8 70.4V729.6c6.4 19.2-6.4 38.4-19.2 51.2z m-448-32c6.4 12.8 25.6 19.2 38.4 19.2 32 0 57.6-32 57.6-64s-25.6-57.6-57.6-57.6-57.6 25.6-57.6 57.6c0 19.2 6.4 32 19.2 44.8z m236.8-614.4H320c-12.8 0-25.6 12.8-25.6 25.6v25.6c0 12.8 12.8 25.6 25.6 25.6h390.4c12.8 0 25.6-12.8 25.6-25.6v-25.6c0-12.8-12.8-25.6-25.6-25.6z m0 249.6H320c-19.2 0-32 12.8-32 25.6v25.6c0 12.8 12.8 25.6 32 25.6h390.4c12.8 0 25.6-12.8 25.6-25.6v-25.6c0-12.8-12.8-25.6-25.6-25.6z"  horiz-adv-x="1024" />

    
    <glyph glyph-name="hebingbaoguo" unicode="&#58991;" d="M524.8 128L70.4 384l454.4 256zM620.8 896h89.6v-1024H620.8zM812.8 896h89.6v-1024h-89.6z"  horiz-adv-x="1024" />

    
    <glyph glyph-name="piliangpingjia" unicode="&#58992;" d="M908.8 486.4c-6.4 12.8-12.8 25.6-25.6 25.6l-275.2 38.4-121.6 249.6c-6.4 6.4-19.2 19.2-32 19.2s-25.6-6.4-32-19.2L300.8 550.4 32 512c-12.8 0-25.6-12.8-32-25.6 0-12.8 0-25.6 12.8-32l198.4-192-44.8-268.8c0-12.8 0-25.6 12.8-32 12.8-6.4 25.6-6.4 38.4 0l243.2 128 243.2-128c6.4 0 12.8-6.4 12.8-6.4 6.4 0 12.8 0 19.2 6.4 12.8 6.4 12.8 19.2 12.8 32L704 262.4l198.4 192c6.4 6.4 12.8 19.2 6.4 32zM1017.6 512c-12.8 38.4-44.8 64-83.2 70.4l-236.8 32-102.4 211.2C576 864 537.6 883.2 499.2 883.2c-25.6 0-44.8-6.4-64-25.6h19.2c32 0 57.6-19.2 70.4-44.8L640 595.2l249.6-38.4c32-6.4 57.6-25.6 64-57.6 12.8-32 0-64-19.2-83.2l-179.2-172.8 44.8-243.2c6.4-32-6.4-64-32-83.2-12.8-12.8-32-12.8-44.8-12.8h-6.4c-12.8 0-19.2 0-32 6.4l32-19.2c12.8-6.4 32-12.8 44.8-12.8 19.2 0 44.8 6.4 57.6 19.2 32 25.6 44.8 64 38.4 102.4l-38.4 236.8 172.8 166.4c32 25.6 38.4 70.4 25.6 108.8z"  horiz-adv-x="1024" />

    
    <glyph glyph-name="zhongliangfuhe" unicode="&#58993;" d="M512-25.6c115.2 0 204.8 89.6 204.8 204.8h102.4c0-166.4-140.8-307.2-307.2-307.2-166.4 0-307.2 140.8-307.2 307.2 0 153.6 108.8 275.2 256 300.8V588.8H224L70.4 896h883.2l-153.6-307.2H563.2V384H512c-115.2 0-204.8-89.6-204.8-204.8s89.6-204.8 204.8-204.8z"  horiz-adv-x="1024" />

    
    <glyph glyph-name="baoguohuanyuan" unicode="&#58994;" d="M371.2 38.4L0 384l371.2 332.8V576L153.6 384l217.6-198.4zM627.2 262.4v-224L256 384l371.2 332.8v-198.4c377.6 0 396.8-499.2 396.8-499.2-128 224-230.4 243.2-396.8 243.2z"  horiz-adv-x="1024" />

    
    <glyph glyph-name="shoudonglanjie" unicode="&#58995;" d="M32 460.8C32 697.6 230.4 896 467.2 896s435.2-198.4 435.2-435.2c0-32-6.4-64-12.8-96-19.2 12.8-44.8 19.2-64 19.2 6.4 25.6 6.4 44.8 6.4 70.4 0 204.8-166.4 364.8-364.8 364.8S102.4 659.2 102.4 460.8c0-166.4 115.2-307.2 268.8-352 6.4-12.8 12.8-25.6 25.6-38.4l44.8-38.4C211.2 38.4 32 230.4 32 460.8zM254.528 309.632l362.048 362.048 67.84-67.84-361.984-362.048zM992 102.4c0-115.2-19.2-230.4-211.2-230.4-83.2 0-121.6 19.2-153.6 44.8-6.4 0-12.8 6.4-12.8 12.8l-179.2 172.8c-32 32-25.6 83.2 6.4 115.2 12.8 12.8 32 19.2 57.6 19.2 19.2 0 38.4-6.4 57.6-19.2l12.8-12.8V409.6c0 44.8 32 76.8 76.8 76.8s76.8-32 76.8-76.8v-44.8h12.8c25.6 0 51.2-12.8 64-38.4 6.4 0 19.2 6.4 25.6 6.4 25.6 0 51.2-12.8 64-38.4 6.4 0 12.8 6.4 25.6 6.4 44.8 0 76.8-32 76.8-76.8v-121.6z"  horiz-adv-x="1024" />

    
    <glyph glyph-name="dingdanjiance" unicode="&#58996;" d="M985.6-38.4l-115.2 115.2c44.8 83.2 32 185.6-32 249.6-83.2 83.2-211.2 83.2-288 0-70.4-70.4-76.8-192-19.2-268.8 64-83.2 179.2-102.4 268.8-51.2l115.2-115.2c19.2-19.2 51.2-19.2 70.4 0 19.2 12.8 19.2 51.2 0 70.4z m-294.4 115.2c-57.6 0-102.4 44.8-102.4 102.4s44.8 102.4 102.4 102.4 102.4-44.8 102.4-102.4-44.8-102.4-102.4-102.4zM844.8 384V838.4c0 32-25.6 57.6-57.6 57.6h-704C51.2 896 25.6 870.4 25.6 838.4v-806.4c0-12.8 6.4-32 19.2-38.4 12.8-12.8 25.6-19.2 38.4-19.2h454.4c-115.2 83.2-134.4 243.2-51.2 358.4 83.2 108.8 249.6 134.4 358.4 51.2zM230.4 793.6h416c25.6 0 44.8-25.6 44.8-51.2s-25.6-51.2-51.2-51.2H224c-25.6 0-44.8 25.6-44.8 51.2s25.6 51.2 51.2 51.2z m204.8-313.6H224c-25.6 0-44.8 25.6-44.8 51.2s25.6 51.2 51.2 51.2H441.6c25.6 0 44.8-25.6 44.8-51.2s-19.2-51.2-51.2-51.2z"  horiz-adv-x="1024" />

    
    <glyph glyph-name="lanjiechuli" unicode="&#58997;" d="M512 896C230.4 896 0 665.6 0 384s230.4-512 512-512 512 230.4 512 512-230.4 512-512 512z m236.8-352l-396.8-396.8c-19.2-19.2-57.6-19.2-76.8 0-19.2 19.2-19.2 57.6 0 76.8l396.8 396.8c19.2 19.2 57.6 19.2 76.8 0 25.6-19.2 25.6-57.6 0-76.8z"  horiz-adv-x="1024" />

    
    <glyph glyph-name="dingdanleixing" unicode="&#58988;" d="M352.711111 292.977778h324.266667c11.377778 0 22.755556 11.377778 22.755555 22.755555v22.755556c0 11.377778-11.377778 22.755556-22.755555 22.755555H352.711111c-11.377778 0-22.755556-11.377778-22.755555-22.755555v-22.755556c0-17.066667 5.688889-22.755556 22.755555-22.755555zM813.511111 406.755556V156.444444c0-34.133333-28.444444-62.577778-62.577778-62.577777H267.377778c-34.133333 0-56.888889 28.444444-56.888889 62.577777V406.755556H0c0-284.444444 227.555556-512 512-512s512 227.555556 512 512h-210.488889zM813.511111 753.777778c0 17.066667-5.688889 34.133333-17.066667 45.511111-11.377778 11.377778-28.444444 17.066667-45.511111 17.066667H682.666667c-5.688889 28.444444-28.444444 45.511111-56.888889 45.511111H563.2C551.822222 878.933333 534.755556 890.311111 512 890.311111s-39.822222-11.377778-51.2-34.133333H398.222222c-28.444444 0-51.2-17.066667-56.888889-45.511111H267.377778c-17.066667 0-28.444444-5.688889-39.822222-17.066667-11.377778-11.377778-17.066667-28.444444-17.066667-45.511111v-341.333333h608.711111V753.777778z m-335.644444 17.066666c11.377778 5.688889 22.755556 11.377778 34.133333 11.377778 28.444444 0 51.2-22.755556 51.2-51.2s-22.755556-45.511111-51.2-45.511111-51.2 22.755556-51.2 51.2c5.688889 11.377778 5.688889 22.755556 17.066667 34.133333z m199.111111-307.2H352.711111c-11.377778 0-22.755556 11.377778-22.755555 22.755556v17.066667c0 11.377778 11.377778 22.755556 22.755555 22.755555h324.266667c11.377778 0 22.755556-11.377778 22.755555-22.755555v-22.755556c0-5.688889-11.377778-17.066667-22.755555-17.066667z"  horiz-adv-x="1024" />

    
    <glyph glyph-name="order_bufa" unicode="&#58965;" d="M170.666667 765.1555559999999h682.666666v-136.533334H170.666667zM369.777778 492.088889h278.755555v-56.888889H369.777778zM807.822222 492.088889v-301.511111c0-11.377778-17.066667-22.755556-39.822222-22.755556h-512c-22.755556 0-39.822222 11.377778-39.822222 22.755556V492.088889H0C0 213.33333300000004 233.244444-14.222221999999988 512-14.222221999999988s512 227.555556 512 506.311111h-216.177778zM369.777778 543.2888889999999h284.444444v-51.2h153.6V611.555556H216.177778v-119.466667h153.6z"  horiz-adv-x="1024" />

    
    <glyph glyph-name="order_caozuorizhi" unicode="&#58966;" d="M64 876.8h115.2v-960H64zM793.6 876.8v-358.4l-115.2 51.2-108.8-51.2V876.8H230.4v-960H960V876.8z"  horiz-adv-x="1024" />

    
    <glyph glyph-name="order_PCdingdan" unicode="&#58967;" d="M216.177778 275.911111h591.644444c22.755556 0 45.511111 17.066667 45.511111 45.511111v39.822222H170.666667v-45.511111c0-22.755556 22.755556-39.822222 45.511111-39.822222zM898.844444 503.466667v-182.044445c0-45.511111-39.822222-85.333333-85.333333-85.333333h-199.111111v-85.333333h45.511111c5.688889 0 17.066667-5.688889 17.066667-11.377778 5.688889-5.688889 5.688889-17.066667 0-22.755556-5.688889-5.688889-11.377778-11.377778-17.066667-11.377778H392.533333c-11.377778 0-22.755556 11.377778-22.755555 22.755556s11.377778 22.755556 22.755555 22.755556h45.511111v85.333333H216.177778c-51.2 0-85.333333 39.822222-85.333334 85.333333V503.466667H0c0-284.444444 227.555556-512 512-512s512 227.555556 512 512h-125.155556zM898.844444 503.466667V713.955556c0 45.511111-39.822222 85.333333-85.333333 85.333333H216.177778c-45.511111 0-85.333333-39.822222-85.333334-85.333333v-210.488889h768z"  horiz-adv-x="1024" />

    
    <glyph glyph-name="order_baohanjiufen" unicode="&#58968;" d="M398.222222 423.822222v-11.377778c0-22.755556 17.066667-34.133333 34.133334-34.133333 22.755556 0 34.133333 17.066667 34.133333 34.133333v11.377778H398.222222zM853.333333 423.822222c28.444444-22.755556 45.511111-56.888889 45.511111-102.4s-28.444444-91.022222-73.955555-125.155555v-68.266667c0-17.066667-11.377778-28.444444-28.444445-28.444444h-5.688888c-22.755556 5.688889-45.511111 17.066667-73.955556 39.822222l-5.688889 5.688889c-17.066667-5.688889-28.444444-5.688889-39.822222-5.688889-56.888889 0-96.711111 11.377778-136.533333 45.511111-11.377778 5.688889-17.066667 17.066667-28.444445 28.444444 130.844444 22.755556 227.555556 108.088889 250.311111 221.866667h-51.2c-28.444444-108.088889-136.533333-182.044444-278.755555-182.044444-17.066667 0-34.133333 0-51.2 5.688888-28.444444-28.444444-62.577778-56.888889-102.4-73.955555-17.066667-5.688889-28.444444-5.688889-45.511111 5.688889-11.377778 11.377778-17.066667 22.755556-17.066667 39.822222v91.022222c-28.444444 22.755556-56.888889 62.577778-73.955556 102.4H0c0-284.444444 227.555556-512 512-512s512 227.555556 512 512h-170.666667zM853.333333 423.822222c-22.755556 17.066667-51.2 34.133333-85.333333 45.511111 0-17.066667-5.688889-28.444444-5.688889-45.511111H853.333333zM398.222222 423.822222c5.688889 17.066667 17.066667 28.444444 34.133334 28.444445s28.444444-11.377778 34.133333-22.755556h244.622222c5.688889 22.755556 11.377778 39.822222 11.377778 68.266667 0 147.911111-130.844444 261.688889-295.822222 261.688889-164.977778 0-301.511111-113.777778-301.511111-261.688889 0-22.755556 5.688889-45.511111 11.377777-68.266667H398.222222z m0 147.911111c0 22.755556 17.066667 34.133333 34.133334 34.133334 22.755556 0 34.133333-17.066667 34.133333-34.133334V497.777778c0-22.755556-17.066667-34.133333-34.133333-34.133334S398.222222 480.711111 398.222222 497.777778V571.733333z"  horiz-adv-x="1024" />

    
    <glyph glyph-name="order_jiaji" unicode="&#58969;" d="M705.422222 412.444444l-256-352.711111c-11.377778-11.377778-34.133333-5.688889-28.444444 11.377778l51.2 301.511111h-227.555556c-11.377778-5.688889-17.066667 11.377778-11.377778 22.755556l11.377778 11.377778H0c0-284.444444 227.555556-512 512-512s512 227.555556 512 512c-96.711111 5.688889-210.488889 5.688889-318.577778 5.688888zM705.422222 412.444444l85.333334 119.466667c5.688889 5.688889 0 22.755556-11.377778 22.755556h-227.555556L614.4 850.488889c5.688889 17.066667-17.066667 28.444444-28.444444 11.377778l-341.333334-455.111111h460.8z"  horiz-adv-x="1024" />

    
    <glyph glyph-name="order_dingdantongbu" unicode="&#58971;" d="M691.52192 684.8c-140.8 0-268.8-89.6-313.6-224-38.4 25.6-89.6 38.4-140.8 38.4-128 0-230.4-102.4-236.8-224-6.4-128 83.2-236.8 211.2-256h486.4c185.6 0 332.8 147.2 332.8 332.8-6.4 179.2-153.6 332.8-339.2 332.8z m0-153.6c51.2 0 96-19.2 128-51.2l-44.8-44.8c-25.6 25.6-70.4 38.4-108.8 32s-64-32-83.2-70.4l51.2-51.2H512.32192C512.32192 448 595.52192 531.2 691.52192 531.2z m0-364.8c-51.2 0-96 19.2-128 51.2l44.8 44.8c25.6-25.6 70.4-38.4 108.8-32 38.4 6.4 70.4 32 89.6 70.4l-51.2 51.2h121.6c-6.4-102.4-83.2-185.6-185.6-185.6z"  horiz-adv-x="1030" />

    
    <glyph glyph-name="order_huifupingjia" unicode="&#58972;" d="M448-64L326.4 339.20000000000005 768 633.6 288 396.8 0 710.4l1024 70.4z"  horiz-adv-x="1024" />

    
    <glyph glyph-name="order_hebing1" unicode="&#58973;" d="M608.711111 384H415.288889v-39.822222h193.422222V384zM870.4 384v-307.2h-455.111111V344.177778H153.6V384H0c0-284.444444 227.555556-512 512-512s512 227.555556 512 512h-153.6zM415.288889 384V526.222222h193.422222V793.6h-455.111111V384zM608.711111 526.222222h261.688889V384h-261.688889z"  horiz-adv-x="1024" />

    
    <glyph glyph-name="order_jiance" unicode="&#58974;" d="M608 0c-19.2 0-38.4 12.8-44.8 38.4l-128 524.8-128-371.2c-6.4-12.8-19.2-25.6-32-32-12.8-6.4-32 0-44.8 12.8L57.6 345.6H44.8c-25.6 0-44.8 25.6-44.8 51.2s19.2 44.8 44.8 44.8h32c12.8 0 25.6-6.4 32-12.8l134.4-140.8 153.6 448c12.8 25.6 25.6 38.4 51.2 32 19.2 0 38.4-12.8 44.8-38.4l121.6-505.6 83.2 307.2c6.4 19.2 19.2 32 32 32 19.2 6.4 32 0 44.8-12.8l115.2-121.6h89.6c25.6 0 44.8-19.2 44.8-44.8s-19.2-44.8-44.8-44.8h-108.8c-12.8 0-25.6 6.4-32 12.8L768 422.4l-108.8-403.2c-6.4-6.4-25.6-19.2-51.2-19.2z"  horiz-adv-x="1024" />

    
    <glyph glyph-name="order_huanhuo" unicode="&#58975;" d="M678.4 51.200000000000045l19.2 76.8L384 64l236.8-192 19.2 70.4c243.2 0 384 172.8 390.4 428.8-25.6-204.8-179.2-326.4-352-320zM627.2 140.79999999999995h236.8V435.2H601.6v-294.4zM588.8 614.4h288v-134.4H588.8zM486.4 614.4h51.2v-473.6h-51.2zM294.4 710.4l-6.4-76.8 294.4 115.2L307.2 896l-6.4-70.4C64 780.8-32 588.8 12.8 332.79999999999995c-25.6 204.8 108.8 352 281.6 377.6zM147.2 614.4h288v-134.4H147.2zM172.8 435.2h262.4v-288H172.8z"  horiz-adv-x="1030" />

    
    <glyph glyph-name="order_shengchengbaoguo" unicode="&#58976;" d="M473.6 518.4L32 640v-473.6s6.4-51.2 25.6-70.4c12.8-12.8 44.8-32 44.8-32l332.8-89.6s32-6.4 38.4-6.4c6.4 6.4 6.4 12.8 6.4 12.8V518.4zM992 640l-140.8-38.4v-204.8l-89.6-25.6V576l-211.2-57.6v-492.8s0-51.2 6.4-57.6c6.4-6.4 38.4 6.4 38.4 6.4l294.4 83.2s64 19.2 83.2 38.4c25.6 25.6 19.2 121.6 19.2 121.6V640zM992 691.2l-448 128s-19.2 6.4-25.6 6.4c-6.4-6.4-25.6-12.8-25.6-12.8l-140.8-38.4L832 640l160 51.2zM217.6 729.6l-185.6-51.2 486.4-121.6 192 44.8z"  horiz-adv-x="1024" />

    
    <glyph glyph-name="order_chaifen" unicode="&#58977;" d="M847.644444 389.688889v-278.755556c0-28.444444-22.755556-51.2-51.2-51.2h-204.8c-28.444444 0-51.2 22.755556-51.2 51.2v284.444445H5.688889c0-284.444444 227.555556-512 512-512s512 227.555556 512 512c-62.577778-5.688889-125.155556-5.688889-182.044445-5.688889z m-358.4-142.222222H369.777778v68.266666L284.444444 213.33333300000004l85.333334-102.4v68.266667h119.466666v-68.266667c0-28.444444-22.755556-51.2-51.2-51.2H233.244444c-28.444444 0-51.2 22.755556-51.2 51.2v204.8c0 28.444444 22.755556 51.2 51.2 51.2h204.8c28.444444 0 51.2-22.755556 51.2-51.2v-68.266666zM438.044444 725.333333H233.244444c-28.444444 0-51.2-22.755556-51.2-51.2v-204.8c0-28.444444 22.755556-51.2 51.2-51.2h204.8c28.444444 0 51.2 22.755556 51.2 51.2V537.6H369.777778v-68.266667L284.444444 571.733333l85.333334 102.4v-68.266666h119.466666V674.133333c0 28.444444-28.444444 51.2-51.2 51.2zM847.644444 389.688889v284.444444c0 28.444444-22.755556 51.2-51.2 51.2h-204.8c-28.444444 0-56.888889-22.755556-56.888888-51.2v-278.755555h312.888888z"  horiz-adv-x="1029" />

    
    <glyph glyph-name="order_xiangqing1" unicode="&#58978;" d="M0 344.576l126.72 126.72 126.72-126.72-126.72-126.72zM384 344.576l126.72 126.72 126.72-126.72-126.72-126.72zM768 344.51199999999994l126.72 126.72 126.72-126.72-126.72-126.72z"  horiz-adv-x="1025" />

    
    <glyph glyph-name="order_shuadan" unicode="&#58979;" d="M841.955556 406.755556V156.44444399999998c0-28.444444-22.755556-51.2-51.2-51.2H534.755556V406.755556h-45.511112v-295.822223H233.244444c-28.444444 0-51.2 22.755556-51.2 51.2V406.755556H0c0-284.444444 227.555556-512 512-512s512 227.555556 512 512h-182.044444zM347.022222 691.2h199.111111L415.288889 873.244444c-5.688889 5.688889-11.377778 5.688889-11.377778 0l-28.444444-79.644444c0-5.688889-5.688889-5.688889-5.688889-5.688889l-102.4 22.755556c-5.688889 0-11.377778-5.688889-5.688889-11.377778l85.333333-108.088889zM676.977778 691.2l68.266666 62.577778c5.688889 5.688889 0 11.377778-5.688888 11.377778l-85.333334 11.377777-5.688889 5.688889 11.377778 91.022222c0 5.688889-5.688889 11.377778-11.377778 5.688889l-113.777777-108.088889 56.888888-79.644444h85.333334zM847.644444 640H540.444444v-125.155556h307.2c28.444444 0 51.2 22.755556 51.2 51.2v28.444445c0 28.444444-22.755556 45.511111-51.2 45.511111zM130.844444 594.488889v-22.755556c0-28.444444 22.755556-51.2 51.2-51.2h312.888889V640H176.355556c-28.444444 0-45.511111-17.066667-45.511112-45.511111zM534.755556 475.022222h301.511111v-68.266666H534.755556zM182.044444 475.022222h301.511112v-68.266666H182.044444z"  horiz-adv-x="1024" />

    
    <glyph glyph-name="order_zhongji" unicode="&#58980;" d="M807.822222 440.888889l-216.177778-193.422222V423.822222c-91.022222 0-369.777778 0-494.933333-273.066666v28.444444c0 51.2 22.755556 159.288889 79.644445 256H0c0-284.444444 227.555556-512 512-512s512 227.555556 512 512h-216.177778zM807.822222 440.888889l113.777778 96.711111-324.266667 290.133333V668.444444c-210.488889 11.377778-341.333333-102.4-415.288889-227.555555h625.777778z"  horiz-adv-x="1024" />

    
    <glyph glyph-name="order_shoujidingdan" unicode="&#58981;" d="M455.111111 190.57777799999997a56.888889 56.888889 0 1 1 113.777778 0 56.888889 56.888889 0 1 1-113.777778 0ZM785.066667 423.822222v-62.577778H238.933333V423.822222H0c0-284.444444 227.555556-512 512-512s512 227.555556 512 512h-238.933333z m0-273.066666c0-34.133333-28.444444-62.577778-68.266667-62.577778H307.2c-34.133333 0-68.266667 28.444444-68.266667 62.577778v147.911111h546.133334v-147.911111zM785.066667 423.822222V793.6c0 34.133333-28.444444 62.577778-62.577778 62.577778H307.2c-34.133333 0-68.266667-28.444444-68.266667-62.577778v-375.466667h546.133334z"  horiz-adv-x="1024" />

    
    <glyph glyph-name="order_yanchangshouhuoshijian" unicode="&#58982;" d="M512 896C230.4 896 0 665.6 0 384l153.6 102.4-25.6 44.8C204.8 729.6 416 832 620.8 774.4c204.8-57.6 332.8-256 294.4-460.8-38.4-204.8-224-352-428.8-339.2-211.2 12.8-377.6 185.6-384 396.8l-96-64C44.8 57.60000000000002 256-128 512-128c281.6 0 512 230.4 512 512s-230.4 512-512 512zM480 563.2c-12.8 0-25.6-6.4-32-12.8-12.8-12.8-19.2-25.6-19.2-38.4v-192c0-25.6 19.2-51.2 51.2-51.2h198.4c25.6 0 44.8 25.6 44.8 51.2s-19.2 51.2-44.8 51.2H531.2V512c0 32-25.6 51.2-51.2 51.2z"  horiz-adv-x="1024" />

    
    <glyph glyph-name="order_wuliuguiji" unicode="&#58983;" d="M422.4 742.4c44.8 0 76.8 32 76.8 76.8C492.8 864 460.8 896 422.4 896c-44.8 0-76.8-32-76.8-76.8 0-38.4 32-76.8 76.8-76.8zM633.6 819.2m-76.8 0a76.8 76.8 0 1 1 153.6 0 76.8 76.8 0 1 1-153.6 0ZM326.4 710.4c0 57.6-44.8 102.4-102.4 102.4-57.6 0-102.4-44.8-102.4-102.4s44.8-102.4 102.4-102.4c57.6 0 102.4 44.8 102.4 102.4zM761.6 473.6l-19.2 76.8C704 646.4 620.8 704 518.4 710.4H512c-76.8-6.4-147.2-44.8-185.6-108.8-44.8-64-51.2-140.8-25.6-211.2 6.4-12.8 6.4-19.2 19.2-32 0-12.8 0-19.2 6.4-25.6 25.6-64 25.6-134.4-6.4-192-12.8-25.6-19.2-57.6-19.2-89.6 0-96 83.2-172.8 179.2-179.2h6.4c32 0 70.4 6.4 96 25.6 25.6 19.2 44.8 44.8 64 70.4C723.2 64 768 198.39999999999998 768 332.79999999999995c6.4 51.2 0 96-6.4 140.8z"  horiz-adv-x="1024" />

    
    <glyph glyph-name="order_zidongpaidan" unicode="&#58984;" d="M301.511111 514.8444440000001v56.888889c-22.755556 28.444444-34.133333 62.577778-34.133333 96.711111 0 96.711111 73.955556 170.666667 170.666666 170.666667s170.666667-73.955556 170.666667-170.666667v-17.066666c11.377778-5.688889 22.755556-11.377778 34.133333-22.755556h17.066667c0 11.377778 5.688889 28.444444 5.688889 39.822222 0 125.155556-102.4 227.555556-227.555556 227.555556s-227.555556-102.4-227.555555-227.555556c0-62.577778 22.755556-113.777778 62.577778-153.6h28.444444zM841.955556 384v-79.644444c0-130.844444-17.066667-261.688889-238.933334-261.688889-96.711111 0-142.222222 22.755556-176.355555 51.2-5.688889 5.688889-11.377778 5.688889-17.066667 11.377777l-199.111111 199.111112c-28.444444 22.755556-34.133333 51.2-28.444445 79.644444H0c0-284.444444 227.555556-512 512-512s512 227.555556 512 512h-182.044444zM841.955556 384V446.577778c0 51.2-39.822222 91.022222-91.022223 91.022222-11.377778 0-17.066667 0-28.444444-5.688889-17.066667 22.755556-45.511111 39.822222-73.955556 39.822222-11.377778 0-22.755556 0-28.444444-5.688889-17.066667 34.133333-39.822222 45.511111-73.955556 45.511112h-17.066666v51.2c0 51.2-39.822222 91.022222-85.333334 91.022222-51.2 0-91.022222-39.822222-91.022222-91.022222v-233.244445L341.333333 440.888889c-17.066667 11.377778-39.822222 22.755556-62.577777 22.755555-28.444444 0-51.2-11.377778-68.266667-22.755555-11.377778-17.066667-22.755556-34.133333-28.444445-56.888889h659.911112z"  horiz-adv-x="1024" />

    
    <glyph glyph-name="order_yiyingshe" unicode="&#58985;" d="M420.977778 236.088889c17.066667 17.066667 39.822222 28.444444 68.266666 39.822222v113.777778H273.066667l147.911111-153.6zM728.177778 389.688889H563.2v-113.777778c11.377778-5.688889 22.755556-5.688889 39.822222-17.066667l125.155556 130.844445zM927.288889 389.688889c-34.133333-28.444444-79.644444-39.822222-119.466667-22.755556L648.533333 213.33333300000004c34.133333-56.888889 22.755556-125.155556-22.755555-170.666666-45.511111-45.511111-119.466667-56.888889-170.666667-22.755556-56.888889 34.133333-85.333333 96.711111-68.266667 159.288889l-170.666666 170.666667c-45.511111-28.444444-102.4-11.377778-136.533334 28.444444 0 5.688889 0 5.688889-5.688888 11.377778H0c0-284.444444 227.555556-512 512-512s512 227.555556 512 512h-96.711111zM728.177778 389.688889h199.111111l17.066667 17.066667c28.444444 45.511111 17.066667 108.088889-22.755556 142.222222-39.822222 34.133333-102.4 28.444444-142.222222-5.688889-34.133333-34.133333-39.822222-79.644444-22.755556-119.466667l-28.444444-34.133333zM489.244444 605.866667v-216.177778h73.955556V605.866667c68.266667 17.066667 113.777778 85.333333 108.088889 159.288889C659.911111 839.111111 603.022222 890.311111 529.066667 890.311111S398.222222 833.422222 386.844444 765.1555559999999c-11.377778-73.955556 34.133333-142.222222 102.4-159.288889zM273.066667 389.688889c17.066667 51.2 0 108.088889-39.822223 136.533333-45.511111 34.133333-102.4 28.444444-136.533333-11.377778-34.133333-34.133333-45.511111-85.333333-22.755555-125.155555h199.111111z"  horiz-adv-x="1024" />

    
    <glyph glyph-name="order_wuyingshe" unicode="&#58986;" d="M729.812155 381.17127100000005l-124.464089-124.464089-16.972375 11.314917c-11.314917 5.657459-22.629834 11.314917-33.944752 11.314918l-22.629834 5.657458V381.17127100000005H509.171271v-96.176796l-16.972376-5.657458c-22.629834-5.657459-39.60221-16.972376-56.574586-33.944752l-16.972375-16.972375-158.40884 152.751381H226.298343l175.381215-175.381216-5.657459-16.972375c-16.972376-56.574586 11.314917-113.149171 62.232045-141.436465 50.917127-28.287293 113.149171-16.972376 152.751381 22.629835 39.60221 39.60221 45.259669 101.834254 16.972376 152.751381l-5.657459 16.972376 141.436464 141.436464h-33.944751zM594.033149 324.596685l56.574586 56.574586h-67.889503v-56.574586h11.314917zM927.823204 381.17127100000005c-28.287293-11.314917-67.889503-16.972376-96.176795-5.657459l-141.436464-141.436464c28.287293-67.889503 16.972376-147.093923-33.944752-198.01105-56.574586-56.574586-147.093923-67.889503-214.983425-28.287292-67.889503 39.60221-101.834254 113.149171-84.861878 186.696132l-169.723757 152.751381c-45.259669-16.972376-101.834254 0-135.779006 33.944752H0c0-282.872928 226.298343-509.171271 509.171271-509.171271s509.171271 226.298343 509.17127 509.171271h-90.519337zM412.994475 301.966851c11.314917 11.314917 28.287293 16.972376 39.60221 22.629834v56.574586H333.790055l79.20442-79.20442zM50.917127 381.17127100000005h181.038674l-33.944751 28.287293-16.972376-5.657459c-33.944751-16.972376-84.861878-5.657459-107.491713 28.287293-22.629834 33.944751-22.629834 84.861878 11.314917 113.149171 28.287293 28.287293 73.546961 33.944751 113.149172 11.314917 33.944751-28.287293 45.259669-73.546961 28.287293-113.149171l-11.314918-16.972376 45.259669-45.259668h73.546961l-56.574585 56.574585c16.972376 56.574586 0 124.464088-50.917127 158.40884-56.574586 39.60221-130.121547 33.944751-181.038674-16.972376-45.259669-45.259669-56.574586-124.464088-16.972376-175.381215 5.657459-11.314917 11.314917-16.972376 22.629834-22.629834zM656.265193 381.17127100000005h73.546962l73.546961 73.546961-11.314917 16.972376c-16.972376 33.944751-11.314917 73.546961 16.972376 101.834254 33.944751 33.944751 84.861878 33.944751 113.149171 5.657458 33.944751-28.287293 45.259669-79.20442 22.629834-113.149171-22.629834-39.60221-73.546961-50.917127-113.149171-33.944751l-16.972376 5.657458-56.574585-56.574585h169.723756c22.629834 11.314917 45.259669 28.287293 62.232045 56.574585 39.60221 56.574586 28.287293 135.779006-28.287293 181.038674-56.574586 45.259669-135.779006 39.60221-186.696133-11.314917-39.60221-39.60221-50.917127-90.519337-33.944751-141.436464l-84.861879-84.861878zM458.254144 528.265193v-147.093922H509.171271V567.867403l-16.972376 5.657459C429.966851 584.839779 390.364641 647.071823 396.022099 709.303867c5.657459 62.232044 62.232044 113.149171 124.464089 113.149172s118.80663-45.259669 124.464088-113.149172c11.314917-62.232044-33.944751-124.464088-90.519337-135.779005l-16.972375-5.657459v-186.696132h50.917127V528.265193c73.546961 28.287293 124.464088 107.491713 113.149171 186.696133C690.209945 805.480663 611.005525 873.370166 526.143646 873.370166 435.624309 873.370166 362.077348 805.480663 350.762431 714.961326c-16.972376-79.20442 33.944751-158.40884 107.491713-186.696133z"  horiz-adv-x="1024" />

    
    <glyph glyph-name="order_baozhengdaohuotianshu" unicode="&#58987;" d="M921.6 440.888889v-22.755556c0-17.066667-17.066667-34.133333-34.133333-34.133333s-34.133333 17.066667-34.133334 34.133333v17.066667H534.755556v-17.066667h108.088888c17.066667 0 34.133333-17.066667 34.133334-34.133333s-17.066667-34.133333-34.133334-34.133333H494.933333c-22.755556 0-34.133333 17.066667-34.133333 34.133333V440.888889h-284.444444c0-187.733333 147.911111-341.333333 335.644444-341.333333h17.066667c17.066667 0 34.133333-17.066667 34.133333-34.133334s-17.066667-34.133333-34.133333-34.133333h-22.755556C284.444444 31.28888900000004 102.4 213.33333300000004 102.4 440.888889H0c0-284.444444 227.555556-512 512-512s512 227.555556 512 512h-102.4z m-250.311111-375.466667c-17.066667 0-34.133333 17.066667-34.133333 34.133334s17.066667 34.133333 34.133333 34.133333 34.133333-17.066667 34.133333-34.133333-11.377778-34.133333-34.133333-34.133334z m108.088889 68.266667c-17.066667 0-34.133333 17.066667-34.133334 34.133333s17.066667 34.133333 34.133334 34.133334 34.133333-17.066667 34.133333-34.133334-17.066667-34.133333-34.133333-34.133333z m68.266666 108.088889c-17.066667 0-34.133333 17.066667-34.133333 34.133333s17.066667 34.133333 34.133333 34.133333 34.133333-17.066667 34.133334-34.133333-11.377778-34.133333-34.133334-34.133333zM512 850.488889C284.444444 850.488889 102.4 662.7555560000001 102.4 440.888889h73.955556c0 187.733333 153.6 335.644444 335.644444 335.644444 187.733333 0 335.644444-153.6 335.644444-335.644444h73.955556C921.6 662.7555560000001 739.555556 850.488889 512 850.488889zM529.066667 440.888889V566.044444c0 17.066667-17.066667 34.133333-34.133334 34.133334s-34.133333-17.066667-34.133333-34.133334V440.888889h68.266667z"  horiz-adv-x="1024" />

    
    <glyph glyph-name="order_biaoqian" unicode="&#58916;" d="M870.4-128L512 217.60000000000002 153.6-128V896h716.8z"  horiz-adv-x="1024" />

    
    <glyph glyph-name="order_chekuangbianhao" unicode="&#58917;" d="M947.2 569.6h-249.6V819.2c0 25.6-19.2 44.8-44.8 44.8s-44.8-19.2-44.8-44.8v-249.6h-192V755.2c0 25.6-19.2 44.8-44.8 44.8s-44.8-19.2-44.8-44.8v-185.6H140.8c-25.6 0-44.8-19.2-44.8-44.8s19.2-44.8 44.8-44.8h185.6v-192H76.8c-25.6 0-44.8-19.2-44.8-44.8s19.2-44.8 44.8-44.8h249.6v-249.6c0-25.6 19.2-44.8 44.8-44.8s44.8 19.2 44.8 44.8v249.6h192v-185.6c0-25.6 19.2-44.8 44.8-44.8s44.8 19.2 44.8 44.8v185.6h185.6c25.6 0 44.8 19.2 44.8 44.8s-19.2 44.8-44.8 44.8h-185.6v192h249.6c25.6 0 44.8 19.2 44.8 44.8s-19.2 44.8-44.8 44.8zM608 288h-192v192h192v-192z"  horiz-adv-x="1024" />

    
    <glyph glyph-name="order_biaoji" unicode="&#58918;" d="M691.2 550.4l256 307.2H198.4V896H121.6v-1024h76.8v371.2h748.8z"  horiz-adv-x="1024" />

    
    <glyph glyph-name="order_chakan" unicode="&#58919;" d="M1004.8 403.2c-6.4 12.8-217.6 294.4-492.8 294.4C236.8 697.6 25.6 409.6 19.2 396.8l-19.2-19.2 19.2-25.6c6.4-12.8 224-300.8 492.8-300.8 275.2 0 486.4 288 492.8 300.8l19.2 25.6-19.2 25.6zM512 134.39999999999998c-192 0-358.4 179.2-409.6 243.2 51.2 64 217.6 243.2 409.6 243.2 192 0 358.4-179.2 409.6-243.2-51.2-64-217.6-243.2-409.6-243.2zM512 588.8c-115.2 0-211.2-96-211.2-211.2s96-211.2 211.2-211.2 211.2 96 211.2 211.2S627.2 588.8 512 588.8z m0-339.2c-70.4 0-134.4 57.6-134.4 128s57.6 128 134.4 128 134.4-57.6 134.4-128-64-128-134.4-128z"  horiz-adv-x="1024" />

    
    <glyph glyph-name="order_bohui" unicode="&#59392;" d="M659.2 672H166.4l160 128-44.8 57.6L0 633.6l281.6-224 44.8 57.6-160 128h499.2c160 0 288-128 288-288s-128-288-288-288H57.6v-76.8h601.6c198.4 0 364.8 160 364.8 364.8s-160 364.8-364.8 364.8z"  horiz-adv-x="1024" />

    
    <glyph glyph-name="order_baocun1" unicode="&#58921;" d="M868.173913 896h-699.627329C104.944099 896 60.42236 851.478261 60.42236 787.875776v-807.751552c0-57.242236 50.881988-108.124224 108.124224-108.124224h699.627329c57.242236 0 108.124224 44.521739 108.124224 108.124224V787.875776c0 63.602484-50.881988 108.124224-108.124224 108.124224zM340.273292 806.956522h356.173913v-273.490683c0-12.720497-6.360248-19.080745-19.080745-19.080746h-318.012423c-12.720497 0-19.080745 12.720497-19.080745 19.080746V806.956522z m546.981366-826.832298c0-12.720497-6.360248-19.080745-19.080745-19.080746h-699.627329c-12.720497 0-19.080745 6.360248-19.080745 19.080746V787.875776c0 12.720497 6.360248 19.080745 19.080745 19.080746h82.68323v-273.490683c0-57.242236 50.881988-108.124224 108.124223-108.124224h318.012423c57.242236 0 108.124224 44.521739 108.124223 108.124224V806.956522h82.68323c12.720497 0 19.080745-6.360248 19.080745-19.080746v-807.751552zM543.801242 736.993789h89.043478V577.987578H543.801242z"  horiz-adv-x="1024" />

    
    <glyph glyph-name="order_fuzhi" unicode="&#58922;" d="M851.2 704C825.6 800 742.4 870.4 633.6 870.4H224C102.4 876.8 0 774.4 0 652.8V256c0-102.4 76.8-192 172.8-211.2 25.6-102.4 108.8-172.8 217.6-172.8h409.6c121.6 0 224 96 224 217.6V492.8c0 102.4-76.8 192-172.8 211.2zM166.4 492.8v-384C108.8 128 64 185.60000000000002 64 256V652.8c0 83.2 70.4 153.6 160 153.6h409.6c70.4 0 128-38.4 147.2-102.4H390.4c-121.6 6.4-224-89.6-224-211.2zM960 89.60000000000002c0-83.2-70.4-153.6-160-153.6H390.4c-89.6 0-160 70.4-160 153.6V492.8c0 83.2 70.4 153.6 160 153.6h409.6C889.6 646.4 960 576 960 492.8v-403.2z"  horiz-adv-x="1024" />

    
    <glyph glyph-name="order_hebing" unicode="&#58923;" d="M838.4 896h89.6v-1024h-89.6zM646.4 896h89.6v-1024h-89.6zM544 128V640l-448-256z"  horiz-adv-x="1024" />

    
    <glyph glyph-name="order_guiji" unicode="&#58924;" d="M460.8 742.4c44.8 0 76.8 32 76.8 76.8S505.6 896 460.8 896 384 864 384 819.2c0-38.4 32-76.8 76.8-76.8zM678.4 819.2m-76.8 0a76.8 76.8 0 1 1 153.6 0 76.8 76.8 0 1 1-153.6 0ZM364.8 710.4c0 57.6-44.8 102.4-102.4 102.4-57.6 0-102.4-44.8-102.4-102.4 0-57.6 44.8-102.4 102.4-102.4 57.6 0 102.4 44.8 102.4 102.4zM800 473.6l-19.2 76.8c-32 96-121.6 153.6-217.6 160h-12.8c-76.8-6.4-140.8-44.8-185.6-108.8-44.8-64-51.2-140.8-25.6-211.2 6.4-12.8 6.4-19.2 19.2-32 6.4-6.4 6.4-12.8 12.8-25.6 25.6-64 25.6-134.4-6.4-192-12.8-25.6-19.2-57.6-19.2-89.6 6.4-96 89.6-179.2 185.6-179.2h6.4c32 0 70.4 6.4 96 25.6 25.6 19.2 44.8 44.8 64 70.4 76.8 96 121.6 230.4 121.6 364.8-6.4 51.2-6.4 96-19.2 140.8z"  horiz-adv-x="1024" />

    
    <glyph glyph-name="order_jian" unicode="&#58925;" d="M1024 428.8H0v-89.6h1024z"  horiz-adv-x="1024" />

    
    <glyph glyph-name="order_piliangzuofei" unicode="&#58926;" d="M512 896C230.4 896 0 665.6 0 384s230.4-512 512-512 512 230.4 512 512-230.4 512-512 512zM275.2 83.20000000000005l-64 64 544 544 64-64-544-544z"  horiz-adv-x="1024" />

    
    <glyph glyph-name="order_daishangjia" unicode="&#58927;" d="M883.2 736H192V896H32v-83.2h76.8v-716.8h96c-38.4-38.4-51.2-89.6-32-140.8 19.2-51.2 64-83.2 121.6-83.2 51.2 0 102.4 32 121.6 83.2 19.2 51.2 6.4 102.4-32 140.8h339.2c-38.4-38.4-51.2-89.6-32-140.8 19.2-51.2 64-83.2 121.6-83.2 51.2 0 102.4 32 121.6 83.2 19.2 51.2 6.4 102.4-32 140.8h38.4v83.2H192v57.6h691.2c57.6 0 108.8 51.2 108.8 108.8V620.8c0 64-51.2 115.2-108.8 115.2z m-83.2-691.2c25.6 0 44.8-19.2 44.8-44.8 0-25.6-19.2-44.8-44.8-44.8-25.6 0-44.8 19.2-44.8 44.8 0 25.6 19.2 44.8 44.8 44.8z m-512 0c25.6 0 44.8-19.2 44.8-44.8 0-25.6-19.2-44.8-44.8-44.8-25.6 0-44.8 19.2-44.8 44.8 0 25.6 19.2 44.8 44.8 44.8z m364.8 390.4L569.6 505.6v-160h-64V518.4L409.6 435.2l-38.4 44.8 160 134.4 160-134.4-38.4-44.8z"  horiz-adv-x="1024" />

    
    <glyph glyph-name="order_kuling" unicode="&#58928;" d="M524.8 448c-128 0-230.4-102.4-230.4-230.4s102.4-230.4 230.4-230.4 230.4 102.4 230.4 230.4S652.8 448 524.8 448z m121.6-275.2h-128c-19.2 0-32 12.8-32 32v128c0 19.2 12.8 32 32 32s32-12.8 32-32v-96h96c19.2 0 32-12.8 32-32s-12.8-32-32-32zM1004.8 492.8L544 883.2c-19.2 19.2-51.2 19.2-70.4 0L19.2 492.8c-19.2-19.2-25.6-51.2-6.4-76.8 19.2-19.2 51.2-25.6 76.8-6.4l6.4 6.4v-492.8c0-32 25.6-51.2 51.2-51.2h736c32 0 51.2 25.6 51.2 51.2V416l6.4-6.4c12.8-6.4 19.2-12.8 32-12.8s32 6.4 38.4 19.2c19.2 25.6 19.2 57.6-6.4 76.8zM512-64c-153.6 0-281.6 128-281.6 281.6s128 281.6 281.6 281.6 281.6-128 281.6-281.6S665.6-64 512-64z"  horiz-adv-x="1024" />

    
    <glyph glyph-name="order_kuweiSKU" unicode="&#58929;" d="M902.4 864v-83.2H121.6V864H32v-960h89.6v147.2h780.8v-147.2h89.6V864h-89.6z m0-172.8v-230.4H121.6V691.2h780.8zM121.6 140.79999999999995V371.20000000000005h780.8v-230.4H121.6zM198.4 620.8h153.6v-89.6H198.4zM435.2 620.8h153.6v-89.6H435.2zM672 620.8h153.6v-89.6h-153.6zM198.4 294.4h153.6v-89.6H198.4zM435.2 294.4h153.6v-89.6H435.2zM672 294.4h153.6v-89.6h-153.6z"  horiz-adv-x="1024" />

    
    <glyph glyph-name="order_kuweishezhi" unicode="&#58930;" d="M908.8 371.20000000000005V384v12.8l64 51.2c32 25.6 44.8 76.8 19.2 115.2l-89.6 153.6c-19.2 38.4-70.4 57.6-108.8 38.4l-76.8-32c-6.4 6.4-12.8 6.4-19.2 12.8l-12.8 83.2c0 44.8-38.4 76.8-83.2 76.8H422.4c-44.8 0-76.8-32-89.6-76.8l-6.4-83.2c-12.8 0-19.2-6.4-25.6-12.8l-76.8 32c-38.4 12.8-89.6 0-108.8-38.4L25.6 563.2C6.4 524.8 12.8 473.6 51.2 448l64-51.2v-25.6L51.2 320c-32-25.6-44.8-76.8-19.2-115.2l89.6-153.6c19.2-38.4 70.4-57.6 108.8-38.4l76.8 32c6.4-6.4 12.8-6.4 19.2-12.8l12.8-83.2c6.4-44.8 38.4-76.8 83.2-76.8h179.2c44.8 0 83.2 32 89.6 76.8l12.8 83.2c6.4 6.4 12.8 6.4 19.2 12.8l76.8-32c38.4-12.8 89.6 0 108.8 38.4l89.6 153.6c19.2 38.4 12.8 83.2-19.2 115.2l-70.4 51.2zM832 89.60000000000002l-121.6 51.2-19.2-12.8c-12.8-12.8-32-19.2-51.2-25.6l-19.2-12.8-19.2-128H422.4l-19.2 128-19.2 6.4c-19.2 6.4-32 19.2-51.2 25.6l-19.2 12.8-121.6-38.4L102.4 256l102.4 76.8v25.6V384v51.2L102.4 518.4 192 678.4l121.6-51.2 19.2 12.8c12.8 12.8 32 25.6 51.2 32l19.2 12.8 19.2 128h179.2l19.2-128 19.2-12.8c19.2-6.4 32-19.2 51.2-25.6l19.2-12.8 121.6 38.4L921.6 512l-102.4-76.8v-102.4l102.4-76.8v-6.4L832 89.60000000000002zM512 614.4C384 614.4 281.6 512 281.6 384S384 153.60000000000002 512 153.60000000000002 742.4 256 742.4 384 640 614.4 512 614.4z m0-371.2c-76.8 0-140.8 64-140.8 140.8 0 76.8 64 140.8 140.8 140.8 76.8 0 140.8-64 140.8-140.8 0-76.8-64-140.8-140.8-140.8z"  horiz-adv-x="1024" />

    
    <glyph glyph-name="order_queren" unicode="&#58931;" d="M742.4 134.39999999999998c0-44.8-38.4-83.2-83.2-83.2H172.8c-44.8 0-83.2 38.4-83.2 83.2V608c0 44.8 38.4 83.2 83.2 83.2h486.4c44.8 0 76.8-32 83.2-76.8l70.4 70.4c-25.6 57.6-83.2 89.6-153.6 89.6H172.8C76.8 780.8 0 704 0 608v-473.6c0-96 76.8-166.4 172.8-166.4h486.4c96 0 172.8 76.8 172.8 166.4v320l-89.6-89.6v-230.4zM217.6 524.8l-70.4-57.6 288-332.8 588.8 576-64 64-518.4-512z"  horiz-adv-x="1024" />

    
    <glyph glyph-name="order_beizhubianjimiaoshu" unicode="&#58932;" d="M185.30437 123.07815200000005L958.162297 896l63.280899-63.280899L248.585268 59.797252999999955zM831.600499 568.7290889999999v-524.144819c0-44.74407-38.35206-83.09613-83.096129-83.09613h-575.280899c-44.74407 0-83.09613 38.35206-83.09613 83.09613v575.280899C90.127341 664.609238 128.479401 702.9612979999999 173.223471 702.9612979999999h524.144819l83.096129 83.09613c-12.78402 0-19.17603 6.39201-31.960049 6.39201h-575.280899C77.343321 792.449438 0.639201 715.745318 0.639201 619.8651689999999v-575.280899C0.639201-51.29588000000001 77.343321-128 173.223471-128h575.280899c95.88015 0 172.58427 76.70412 172.584269 172.58427v575.280899c0 12.78402 0 25.56804-6.39201 31.960049L831.600499 568.7290889999999z"  horiz-adv-x="1024" />

    
    <glyph glyph-name="order_quancangkukucun" unicode="&#58933;" d="M1004.8 492.8L544 883.2c-19.2 19.2-51.2 19.2-70.4 0L19.2 492.8c-19.2-19.2-25.6-51.2-6.4-76.8 19.2-19.2 51.2-25.6 76.8-6.4l6.4 6.4v-492.8c0-32 25.6-51.2 51.2-51.2h736c32 0 51.2 25.6 51.2 51.2V416l6.4-6.4c12.8-6.4 19.2-12.8 32-12.8s32 6.4 38.4 19.2c19.2 25.6 19.2 57.6-6.4 76.8zM352-64h-192v192h192v-192z m0 256h-192V384h192v-192z m256-256h-192v192h192v-192z m0 256h-192V384h192v-192z m256-256h-192v192h192v-192z m0 256h-192V384h192v-192z"  horiz-adv-x="1024" />

    
    <glyph glyph-name="order_quancangkudekucun" unicode="&#58934;" d="M70.4 448C32 480 6.4 531.2 0 576v-403.2c0-32 19.2-57.6 44.8-70.4l428.8-224c12.8-6.4 19.2 0 19.2 12.8V422.4l-153.6 57.6C268.8 396.8 153.6 384 70.4 448zM768 550.4l230.4 83.2c-6.4 6.4-19.2 12.8-25.6 12.8L531.2 787.2c-12.8 6.4-32 6.4-51.2 0l-153.6-51.2c6.4-6.4 12.8-19.2 19.2-25.6L768 550.4zM1017.6 601.6L531.2 422.4v-531.2c0-12.8 6.4-19.2 19.2-12.8l428.8 224c25.6 12.8 44.8 44.8 44.8 70.4V569.6c0 12.8 0 19.2-6.4 32zM371.2 652.8c12.8-44.8 12.8-96-12.8-140.8l153.6-57.6 198.4 70.4-339.2 128zM192 448c83.2 0 147.2 64 147.2 147.2 0 83.2-64 147.2-147.2 147.2S44.8 678.4 44.8 595.2C38.4 518.4 108.8 448 192 448z m-19.2 256c0 12.8 6.4 19.2 19.2 19.2 12.8 0 19.2-6.4 19.2-19.2v-89.6h51.2c12.8 0 19.2-6.4 19.2-19.2 0-12.8-6.4-19.2-19.2-19.2H172.8V704z"  horiz-adv-x="1024" />

    
    <glyph glyph-name="order_dayin1" unicode="&#58935;" d="M832 640H192V800c0 6.4 6.4 19.2 6.4 25.6 6.4 0 19.2 6.4 25.6 6.4h576c6.4 0 19.2-6.4 25.6-6.4 0-6.4 6.4-19.2 6.4-25.6V640zM1017.6 569.6c-6.4 0-19.2 6.4-25.6 6.4H32c-19.2 0-32-12.8-32-32V128h192v-192h640v192h192V544c0 6.4-6.4 19.2-6.4 25.6zM704 64H320v192h384v-192z m217.6 320c-12.8-19.2-32-32-57.6-32-38.4 0-64 25.6-64 64s25.6 64 64 64c25.6 0 44.8-12.8 57.6-32 6.4-19.2 6.4-44.8 0-64z"  horiz-adv-x="1024" />

    
    <glyph glyph-name="piliangbangdingkuwei" unicode="&#58936;" d="M272.128 560.512l67.84 67.84 411.84-411.776-67.84-67.84zM659.2 422.4l236.8-236.8c51.2-51.2 51.2-134.4 0-179.2s-134.4-51.2-179.2 0l-236.8 236.8-64-64 236.8-236.8c89.6-89.6 230.4-89.6 313.6 0s89.6 230.4 0 313.6l-236.8 236.8-70.4-70.4zM364.8 345.6L134.4 582.4c-51.2 51.2-51.2 134.4 0 179.2s134.4 51.2 179.2 0l236.8-236.8 64 64L377.6 832C294.4 915.2 153.6 915.2 64 832S-25.6 601.6 64 518.4l236.8-236.8 64 64z"  horiz-adv-x="1031" />

    
    <glyph glyph-name="daochu" unicode="&#58937;" d="M550.4 38.4V499.2H473.6v-460.8l-102.4 102.4-57.6-57.6L512-115.2l198.4 198.4-57.6 57.6zM768 883.2H256C115.2 883.2 0 768 0 627.2s115.2-256 256-256h38.4c12.8-76.8 64-134.4 128-166.4V550.4h179.2v-339.2c64 32 115.2 89.6 128 166.4h38.4c140.8 0 256 115.2 256 256S908.8 883.2 768 883.2z"  horiz-adv-x="1024" />

    
    <glyph glyph-name="suiji" unicode="&#58938;" d="M832 518.4L1024 704l-192 192-51.2-57.6 89.6-89.6h-172.8l-51.2-83.2-153.6-224-204.8 307.2H25.6v-83.2h236.8l192-281.6-192-281.6H25.6v-83.2h262.4l204.8 307.2 153.6-224 51.2-83.2h172.8l-89.6-89.6 51.2-57.6 192 192-192 185.6-51.2-57.6 89.6-89.6h-147.2L531.2 384l192 281.6h147.2L780.8 576z"  horiz-adv-x="1024" />

    
    <glyph glyph-name="shenhetongguo" unicode="&#58939;" d="M518.4 153.6c-70.4 0-140.8 32-185.6 89.6l-57.6-44.8c25.6-38.4 64-64 102.4-83.2 44.8-19.2 89.6-32 134.4-32 44.8 0 96 12.8 134.4 32 38.4 19.2 76.8 51.2 102.4 83.2l-44.8 44.8c-44.8-51.2-115.2-89.6-185.6-89.6zM352 441.6l51.2 38.4c0 6.4-51.2 76.8-140.8 70.4-57.6 0-108.8-38.4-134.4-89.6l44.8-32c19.2 32 57.6 57.6 96 57.6 51.2 0 83.2-38.4 83.2-44.8zM761.6 550.4c-89.6 6.4-134.4-70.4-140.8-70.4l51.2-38.4c0 6.4 32 44.8 83.2 44.8 38.4 0 76.8-25.6 96-57.6l44.8 32c-25.6 51.2-76.8 89.6-134.4 89.6zM512 896C230.4 896 0 665.6 0 384s230.4-512 512-512 512 230.4 512 512-230.4 512-512 512z m0-966.4C262.4-70.4 57.6 134.4 57.6 384S262.4 838.4 512 838.4c249.6 0 454.4-204.8 454.4-454.4s-204.8-454.4-454.4-454.4z"  horiz-adv-x="1024" />

    
    <glyph glyph-name="shenheruku" unicode="&#58940;" d="M96-64h838.4v-64H96zM889.6 243.2H588.8V512c64 38.4 96 102.4 96 179.2 6.4 115.2-83.2 204.8-192 204.8S294.4 806.4 294.4 691.2c0-76.8 38.4-140.8 102.4-179.2v-268.8H134.4c-76.8 0-134.4-64-134.4-134.4v-102.4h1024v102.4c0 76.8-57.6 134.4-134.4 134.4z"  horiz-adv-x="1024" />

    
    <glyph glyph-name="shezhi" unicode="&#58941;" d="M934.4 384c0 57.6 38.4 108.8 89.6 128-12.8 51.2-32 96-57.6 140.8-51.2-25.6-115.2-12.8-153.6 32-44.8 44.8-51.2 102.4-25.6 153.6C736 864 691.2 883.2 640 896c-19.2-51.2-70.4-89.6-128-89.6-57.6 0-108.8 38.4-128 89.6-51.2-12.8-96-32-140.8-57.6 19.2-51.2 12.8-115.2-32-153.6-38.4-44.8-102.4-51.2-153.6-32C32 608 12.8 563.2 0 512c51.2-19.2 89.6-70.4 89.6-128 0-57.6-38.4-108.8-89.6-128 12.8-51.2 32-96 57.6-140.8 51.2 25.6 115.2 12.8 153.6-32 44.8-44.8 51.2-102.4 25.6-153.6 51.2-25.6 96-44.8 147.2-57.6 19.2 51.2 70.4 89.6 128 89.6 57.6 0 108.8-38.4 128-89.6 51.2 12.8 96 32 140.8 57.6-25.6 51.2-12.8 115.2 25.6 153.6 44.8 44.8 102.4 51.2 153.6 32 25.6 44.8 44.8 89.6 57.6 140.8-44.8 19.2-83.2 70.4-83.2 128zM512 243.2c-76.8 0-140.8 64-140.8 140.8 0 76.8 64 140.8 140.8 140.8 76.8 0 140.8-64 140.8-140.8 0-76.8-64-140.8-140.8-140.8z"  horiz-adv-x="1024" />

    
    <glyph glyph-name="shanchu" unicode="&#58942;" d="M102.4 748.8h812.8v-83.2H102.4zM428.8 896h172.8v-83.2H428.8zM832 601.6H102.4l64-729.6H864l64 729.6H832zM243.2-44.8l-44.8 563.2h70.4l57.6-563.2H243.2z m224 0h-57.6l-57.6 563.2h121.6v-563.2z m147.2 0h-57.6V518.4h121.6l-64-563.2z m166.4 0h-83.2l57.6 563.2h70.4l-44.8-563.2z"  horiz-adv-x="1024" />

    
    <glyph glyph-name="tuijianruku" unicode="&#58943;" d="M512 876.8l-512-512h140.8v-473.6h736V364.8H1024l-512 512z m64-774.4l-44.8 44.8 89.6 89.6H320v64h294.4L531.2 390.4l44.8 44.8 166.4-166.4L576 102.4z"  horiz-adv-x="1024" />

    
    <glyph glyph-name="tianjiaxinzengjia" unicode="&#58944;" d="M1024 428.8H556.8V896H467.2v-467.2H0v-89.6h467.2V-128h89.6V339.2H1024z"  horiz-adv-x="1024" />

    
    <glyph glyph-name="tuisong" unicode="&#58946;" d="M1004.8 889.6c12.8-6.4 19.2-19.2 19.2-38.4l-147.2-876.8c0-19.2-19.2-32-38.4-32h-12.8l-256 108.8-140.8-166.4c-6.4-6.4-12.8-12.8-25.6-12.8h-12.8c-6.4 0-12.8 6.4-19.2 12.8-6.4 6.4-6.4 12.8-6.4 19.2v198.4l492.8 608-608-531.2L25.6 275.2c-19.2 6.4-25.6 19.2-25.6 32s6.4 25.6 19.2 32L972.8 889.6c0 6.4 6.4 6.4 12.8 6.4s19.2 0 19.2-6.4z"  horiz-adv-x="1024" />

    
    <glyph glyph-name="piliangcaozuo" unicode="&#58947;" d="M377.6 345.6H76.8C32 345.6 0 307.2 0 268.8v-313.6c0-44.8 32-83.2 76.8-83.2h300.8c38.4 0 76.8 38.4 76.8 76.8v320c0 44.8-32 76.8-76.8 76.8zM608 307.2c-25.6 0-38.4-19.2-38.4-38.4v-313.6c0-25.6 19.2-38.4 38.4-38.4s38.4 19.2 38.4 38.4V262.4c0 25.6-12.8 44.8-38.4 44.8zM793.6 307.2c-25.6 0-38.4-19.2-38.4-38.4v-313.6c0-25.6 19.2-38.4 38.4-38.4s38.4 19.2 38.4 38.4V262.4c0 25.6-12.8 44.8-38.4 44.8zM947.2 896h-300.8c-44.8 0-76.8-38.4-76.8-76.8v-313.6c0-44.8 32-76.8 76.8-76.8h300.8c38.4 0 76.8 38.4 76.8 76.8V819.2c0 38.4-32 76.8-76.8 76.8zM985.6 307.2c-25.6 0-38.4-19.2-38.4-38.4v-313.6c0-25.6 19.2-38.4 38.4-38.4s38.4 19.2 38.4 38.4V262.4c0 25.6-12.8 44.8-38.4 44.8zM38.4 857.6c-25.6 0-38.4-19.2-38.4-38.4v-313.6c0-25.6 19.2-38.4 38.4-38.4s38.4 19.2 38.4 38.4V819.2C76.8 844.8 64 857.6 38.4 857.6zM224 857.6c-25.6 0-38.4-19.2-38.4-38.4v-313.6c0-25.6 19.2-38.4 38.4-38.4s38.4 19.2 38.4 38.4V819.2c0 25.6-12.8 38.4-38.4 38.4zM416 857.6c-25.6 0-38.4-19.2-38.4-38.4v-313.6c0-25.6 19.2-38.4 38.4-38.4s38.4 19.2 38.4 38.4V819.2c0 25.6-12.8 38.4-38.4 38.4z"  horiz-adv-x="1024" />

    
    <glyph glyph-name="pandian" unicode="&#58948;" d="M64 640m-64 0a64 64 0 1 1 128 0 64 64 0 1 1-128 0ZM364.8 640m-64 0a64 64 0 1 1 128 0 64 64 0 1 1-128 0ZM659.2 640m-64 0a64 64 0 1 1 128 0 64 64 0 1 1-128 0ZM960 640m-64 0a64 64 0 1 1 128 0 64 64 0 1 1-128 0ZM64 384m-64 0a64 64 0 1 1 128 0 64 64 0 1 1-128 0ZM364.8 384m-64 0a64 64 0 1 1 128 0 64 64 0 1 1-128 0ZM659.2 384m-64 0a64 64 0 1 1 128 0 64 64 0 1 1-128 0ZM960 384m-64 0a64 64 0 1 1 128 0 64 64 0 1 1-128 0ZM64 128m-64 0a64 64 0 1 1 128 0 64 64 0 1 1-128 0ZM364.8 128m-64 0a64 64 0 1 1 128 0 64 64 0 1 1-128 0ZM659.2 128m-64 0a64 64 0 1 1 128 0 64 64 0 1 1-128 0ZM960 128m-64 0a64 64 0 1 1 128 0 64 64 0 1 1-128 0Z"  horiz-adv-x="1024" />

    
    <glyph glyph-name="chukudanhaoshenhe" unicode="&#58949;" d="M493.0592-38.4h236.8c6.4 0 19.2 6.4 19.2 19.2v185.6c-172.8-32-249.6-204.8-256-204.8zM1017.8592 262.4l-160 147.2c-6.4 6.4-12.8 6.4-19.2 6.4-12.8 0-25.6-12.8-25.6-25.6v-64c-19.2 0-44.8-6.4-64-6.4V480h76.8c12.8 0 19.2 19.2 6.4 32L441.8592 793.6c-12.8 6.4-25.6 6.4-38.4 0L6.6592 512c-12.8-12.8-6.4-32 12.8-32h76.8v-505.6c0-6.4 6.4-19.2 19.2-19.2h384c0 211.2 83.2 326.4 249.6 358.4v-153.6c19.2 6.4 38.4 6.4 64 6.4v-76.8c0-6.4 0-12.8 6.4-19.2 12.8-12.8 25.6-12.8 38.4 0l160 147.2c6.4 12.8 6.4 32 0 44.8z"  horiz-adv-x="1024" />

    
    <glyph glyph-name="jiean" unicode="&#58950;" d="M556.486281 83.081003H70.360334v-102.342304H0V-128h626.846615v108.738699H556.486281zM204.684609 550.017767l262.252155 262.252156 147.117063-140.720669-262.252155-268.648549zM466.936764 460.468251l95.945911 95.945911 460.54037-460.540371-95.94591-95.94591zM633.243009 709.927618c12.792788-12.792788 38.378364-12.792788 51.171153 0 6.396394 6.396394 12.792788 19.189182 12.792788 25.585576 0 6.396394-6.396394 19.189182-12.792788 25.585577l-127.927881 127.92788c-12.792788 12.792788-38.378364 6.396394-51.171152-6.396394-12.792788-12.792788-12.792788-31.98197 0-51.171152l127.92788-121.531487zM262.252155 332.54037c12.792788-12.792788 38.378364-12.792788 51.171153 0 12.792788 12.792788 12.792788 38.378364 0 51.171153l-127.927881 127.92788c-12.792788 12.792788-38.378364 12.792788-51.171152 0-12.792788-12.792788-12.792788-38.378364 0-51.171152l127.92788-127.927881z"  horiz-adv-x="1024" />

    
    <glyph glyph-name="daoru" unicode="&#58951;" d="M768 678.4h-38.4C710.4 780.8 620.8 857.6 512 857.6S313.6 780.8 294.4 678.4H256c-140.8 0-256-115.2-256-256s115.2-256 256-256h179.2V275.2l-57.6-57.6-115.2 108.8L512 576l249.6-249.6-115.2-115.2-57.6 64v-108.8H768c140.8 0 256 115.2 256 256s-115.2 256-256 256zM710.4 326.4L512 524.8 313.6 326.4l57.6-57.6 102.4 96v-454.4h76.8V364.8l102.4-96z"  horiz-adv-x="1024" />

    
    <glyph glyph-name="zaitu" unicode="&#58952;" d="M819.2 896H204.8L57.6-128h908.8L819.2 896zM294.4 793.6h166.4v-121.6h102.4V793.6h166.4l115.2-812.8H563.2v121.6H460.8v-121.6H179.2L294.4 793.6zM460.8 608h102.4v-192H460.8zM460.8 352h102.4v-192H460.8z"  horiz-adv-x="1024" />

    
    <glyph glyph-name="xiangqing" unicode="&#58953;" d="M1.088 403.136l126.72 126.72 126.72-126.72-126.72-126.72zM385.088 403.136l126.72 126.72 126.72-126.72-126.72-126.72zM769.088 403.136l126.72 126.72 126.72-126.72-126.72-126.72z"  horiz-adv-x="1024" />

    
    <glyph glyph-name="xuanze" unicode="&#58954;" d="M1007.065367 182.130879L535.401841 462.579462c-19.121494 12.747663-25.495326 6.373831-25.495326-19.121494l101.981303-541.775672c6.373831-19.121494 19.121494-25.495326 25.495326-6.373832 0 0 63.738314 89.23364 114.728966 146.598123l108.355134-159.345786c6.373831-12.747663 19.121494-12.747663 31.869157-6.373831l50.990652 31.869157c12.747663 6.373831 12.747663 19.121494 6.373831 31.869157l-108.355134 159.345786c70.112146 25.495326 165.719617 50.990652 165.719617 50.990652 19.121494 12.747663 19.121494 19.121494 0 31.869157z m0 0M522.654178 131.140227H172.093449c-44.61682 0-82.859809 38.242989-82.859809 82.859809v509.906515c0 44.61682 38.242989 82.859809 82.859809 82.859809h509.906515c44.61682 0 82.859809-38.242989 82.859809-82.859809v-344.186898l89.23364-50.990651V723.906551c0 95.607472-76.485977 172.093449-172.093449 172.093449h-509.906515C76.485977 896 0 819.514023 0 723.906551v-509.906515c0-95.607472 76.485977-172.093449 172.093449-172.093449h369.682223L522.654178 131.140227z"  horiz-adv-x="1025" />

    
    <glyph glyph-name="zanyong" unicode="&#58955;" d="M512-128c-281.6 0-512 230.4-512 512s230.4 512 512 512 512-230.4 512-512-230.4-512-512-512z m217.6 582.4H294.4c-44.8 0-76.8-32-76.8-70.4 0-38.4 32-70.4 70.4-70.4h441.6c38.4 0 70.4 32 70.4 70.4 6.4 38.4-25.6 70.4-70.4 70.4z m0 0"  horiz-adv-x="1024" />

    
    <glyph glyph-name="tupian" unicode="&#58956;" d="M966.4 768H57.6c-32 0-57.6-25.6-57.6-57.6v-473.6c44.8 38.4 96 76.8 160 76.8h6.4c76.8 0 121.6-51.2 160-96 32-38.4 64-70.4 102.4-70.4 32 0 57.6 64 89.6 128 44.8 96 96 217.6 211.2 217.6 96 0 211.2-96 300.8-185.6V710.4c-6.4 32-32 57.6-64 57.6zM217.6 473.6c-44.8 0-83.2 38.4-83.2 89.6 0 44.8 38.4 83.2 83.2 83.2 44.8 0 83.2-38.4 83.2-83.2 0-51.2-38.4-89.6-83.2-89.6zM723.2 428.8c-76.8 0-115.2-89.6-160-179.2-38.4-83.2-70.4-160-140.8-160h-6.4c-64 0-108.8 51.2-147.2 89.6-25.6 44.8-57.6 76.8-108.8 83.2-64 0-121.6-57.6-160-108.8v-121.6c0-32 25.6-57.6 57.6-57.6h908.8c32 0 57.6 25.6 57.6 57.6v185.6c-89.6 96-211.2 211.2-300.8 211.2z"  horiz-adv-x="1030" />

    
    <glyph glyph-name="yijianhuo" unicode="&#58957;" d="M780.8 486.4l-64 224-345.6-96 57.6-224zM499.2 134.4L1024 281.6l-64 217.6-531.2-147.2zM1004.8 198.4L576 83.2l12.8-57.6 435.2 115.2zM409.6 185.6l-160 640H128V838.4H0v-76.8h128v12.8h70.4l153.6-608zM390.4 128c-70.4 0-128-57.6-128-128 0-32 12.8-64 38.4-89.6 25.6-25.6 57.6-38.4 89.6-38.4 70.4 0 128 57.6 128 128s-57.6 128-128 128z"  horiz-adv-x="1024" />

    
    <glyph glyph-name="gengduo" unicode="&#58958;" d="M128 512C57.6 512 0 454.4 0 384s57.6-128 128-128 128 57.6 128 128-51.2 128-128 128z m0-172.8c-25.6 0-44.8 19.2-44.8 44.8 0 25.6 19.2 44.8 44.8 44.8 25.6 0 44.8-19.2 44.8-44.8 6.4-25.6-12.8-44.8-44.8-44.8zM512 512c-70.4 0-128-57.6-128-128s57.6-128 128-128 128 57.6 128 128-57.6 128-128 128z m0-172.8c-25.6 0-44.8 19.2-44.8 44.8 0 25.6 19.2 44.8 44.8 44.8 25.6 0 44.8-19.2 44.8-44.8 0-25.6-19.2-44.8-44.8-44.8zM896 512c-70.4 0-128-57.6-128-128s57.6-128 128-128 128 57.6 128 128-57.6 128-128 128z m0-172.8c-25.6 0-44.8 19.2-44.8 44.8 0 25.6 19.2 44.8 44.8 44.8 25.6 0 44.8-19.2 44.8-44.8 0-25.6-19.2-44.8-44.8-44.8z"  horiz-adv-x="1024" />

    
    <glyph glyph-name="zhuanzhidaihedan" unicode="&#58959;" d="M364.8 652.8h499.2l-160 128 44.8 57.6L1024 614.4l-281.6-224-44.8 57.6 160 128H364.8C204.8 576 76.8 448 76.8 288s128-288 288-288h601.6v-76.8H364.8C160-70.4 0 89.6 0 288s160 364.8 364.8 364.8z"  horiz-adv-x="1024" />

    
    <glyph glyph-name="weirushu" unicode="&#58960;" d="M1004.8 492.8L544 883.2c-19.2 19.2-51.2 19.2-70.4 0L19.2 492.8c-19.2-19.2-25.6-51.2-6.4-76.8 19.2-19.2 51.2-25.6 76.8-6.4l6.4 6.4v-492.8c0-32 25.6-51.2 51.2-51.2h736c32 0 51.2 25.6 51.2 51.2V416l6.4-6.4c12.8-6.4 19.2-12.8 32-12.8s32 6.4 38.4 19.2c19.2 25.6 19.2 57.6-6.4 76.8zM512-64c-153.6 0-281.6 128-281.6 281.6s128 281.6 281.6 281.6 281.6-128 281.6-281.6S665.6-64 512-64zM352 217.6m-51.2 0a51.2 51.2 0 1 1 102.4 0 51.2 51.2 0 1 1-102.4 0ZM512 217.6m-51.2 0a51.2 51.2 0 1 1 102.4 0 51.2 51.2 0 1 1-102.4 0ZM672 217.6m-51.2 0a51.2 51.2 0 1 1 102.4 0 51.2 51.2 0 1 1-102.4 0Z"  horiz-adv-x="1024" />

    
    <glyph glyph-name="bangding" unicode="&#58961;" d="M556.8 460.8V544H512C422.4 544 352 467.2 352 384v-44.8h83.2V384c0 44.8 32 76.8 76.8 76.8h44.8zM748.8 544H704v-83.2h44.8c44.8 0 76.8-32 76.8-76.8v-352c0-44.8-32-76.8-76.8-76.8H512c-44.8 0-76.8 32-76.8 76.8v166.4H352v-166.4C352-57.6 422.4-128 512-128h236.8c89.6 0 160 70.4 160 160V384c-6.4 83.2-76.8 160-160 160zM198.4 384V736c0 44.8 32 76.8 76.8 76.8H512c44.8 0 76.8-32 76.8-76.8v-166.4h83.2V736C672 825.6 601.6 896 512 896H275.2C192 896 121.6 825.6 121.6 736V384c0-89.6 70.4-160 160-160h44.8V307.2h-51.2c-38.4 0-76.8 38.4-76.8 76.8zM672 384v44.8H588.8V384c0-44.8-32-76.8-76.8-76.8h-44.8v-83.2H512c89.6 0 160 76.8 160 160z"  horiz-adv-x="1024" />

    
    <glyph glyph-name="shenhebutongguo" unicode="&#58962;" d="M652.8 211.2c-44.8 19.2-89.6 32-134.4 32s-96-6.4-134.4-32c-44.8-19.2-76.8-44.8-108.8-83.2l57.6-44.8c44.8 57.6 108.8 89.6 185.6 89.6s140.8-32 185.6-89.6l57.6 44.8c-32 38.4-64 64-108.8 83.2zM403.2 499.2l-51.2 32s-32-38.4-83.2-38.4c-38.4 0-76.8 25.6-96 57.6l-44.8-32c25.6-57.6 76.8-89.6 134.4-96 89.6 0 134.4 70.4 140.8 76.8zM851.2 550.4c-19.2-38.4-57.6-57.6-96-57.6-51.2 0-76.8 32-83.2 38.4l-51.2-32c0-6.4 51.2-76.8 140.8-70.4 57.6 0 108.8 38.4 134.4 96l-44.8 25.6zM512 896C230.4 896 0 665.6 0 384s230.4-512 512-512 512 230.4 512 512-230.4 512-512 512z m0-966.4C262.4-70.4 57.6 134.4 57.6 384 57.6 633.6 262.4 838.4 512 838.4c249.6 0 454.4-204.8 454.4-454.4 0-249.6-204.8-454.4-454.4-454.4z"  horiz-adv-x="1024" />

    
    <glyph glyph-name="zhuanzhicangku" unicode="&#58963;" d="M512 876.8l-512-512h140.8v-473.6h736V364.8H1024l-512 512z m-83.2-640c-44.8 0-83.2-38.4-83.2-83.2 0-44.8 38.4-83.2 83.2-83.2h230.4v-64H428.8c-83.2 0-147.2 64-147.2 147.2s64 147.2 147.2 147.2h185.6L531.2 390.4l44.8 44.8 166.4-166.4L576 102.4l-44.8 44.8 89.6 89.6h-192z"  horiz-adv-x="1024" />

    
    <glyph glyph-name="quanbupandian" unicode="&#58964;" d="M64 761.6m-64 0a64 64 0 1 1 128 0 64 64 0 1 1-128 0ZM364.8 761.6m-64 0a64 64 0 1 1 128 0 64 64 0 1 1-128 0ZM659.2 761.6m-64 0a64 64 0 1 1 128 0 64 64 0 1 1-128 0ZM960 761.6m-64 0a64 64 0 1 1 128 0 64 64 0 1 1-128 0ZM64 505.6m-64 0a64 64 0 1 1 128 0 64 64 0 1 1-128 0ZM364.8 505.6m-64 0a64 64 0 1 1 128 0 64 64 0 1 1-128 0ZM659.2 505.6m-64 0a64 64 0 1 1 128 0 64 64 0 1 1-128 0ZM960 505.6m-64 0a64 64 0 1 1 128 0 64 64 0 1 1-128 0ZM64 249.6m-64 0a64 64 0 1 1 128 0 64 64 0 1 1-128 0ZM364.8 249.6m-64 0a64 64 0 1 1 128 0 64 64 0 1 1-128 0ZM659.2 249.6m-64 0a64 64 0 1 1 128 0 64 64 0 1 1-128 0ZM960 249.6m-64 0a64 64 0 1 1 128 0 64 64 0 1 1-128 0ZM64-6.4m-64 0a64 64 0 1 1 128 0 64 64 0 1 1-128 0ZM364.8-6.4m-64 0a64 64 0 1 1 128 0 64 64 0 1 1-128 0ZM659.2-6.4m-64 0a64 64 0 1 1 128 0 64 64 0 1 1-128 0ZM960-6.4m-64 0a64 64 0 1 1 128 0 64 64 0 1 1-128 0Z"  horiz-adv-x="1024" />

    
    <glyph glyph-name="yulan" unicode="&#58915;" d="M512 684.8c-307.2 0-512-320-512-320s204.8-320 512-320 512 320 512 320-204.8 320-512 320z m0-531.2c-115.2 0-204.8 96-204.8 211.2S396.8 576 512 576c115.2 0 204.8-96 204.8-211.2S627.2 153.6 512 153.6zM512 467.2c-25.6 0-51.2-12.8-70.4-32-19.2-19.2-32-44.8-32-70.4 0-25.6 12.8-57.6 32-76.8 19.2-19.2 44.8-32 70.4-32s51.2 12.8 70.4 32c38.4 44.8 38.4 108.8 0 147.2-19.2 25.6-44.8 32-70.4 32z"  horiz-adv-x="1024" />

    
    <glyph glyph-name="shanghu" unicode="&#58912;" d="M1024 416c0 12.8 0 25.6-6.4 38.4l-57.6 384c0 12.8-12.8 25.6-32 25.6h-832c-12.8 0-32-12.8-32-25.6L6.4 460.8c-6.4-19.2-6.4-32-6.4-44.8 0-64 38.4-121.6 96-140.8V-64c0-19.2 12.8-32 32-32h768c19.2 0 32 12.8 32 32V275.2c57.6 25.6 96 76.8 96 140.8z m-864-448V268.8c44.8 0 83.2 25.6 115.2 57.6 25.6-38.4 70.4-57.6 121.6-57.6s89.6 19.2 115.2 57.6c25.6-38.4 70.4-57.6 121.6-57.6s89.6 25.6 121.6 57.6c25.6-32 64-57.6 115.2-57.6v-300.8H160z m710.4 358.4c-51.2 0-89.6 38.4-89.6 89.6 6.4 19.2-12.8 32-25.6 32s-32-12.8-32-32c0-51.2-38.4-89.6-89.6-89.6s-89.6 44.8-89.6 89.6c0 19.2-12.8 32-32 32s-32-12.8-32-32c0-51.2-38.4-89.6-89.6-89.6s-83.2 44.8-83.2 89.6c0 19.2-19.2 32-32 32s-32-12.8-32-32c0-51.2-38.4-89.6-89.6-89.6S64 371.2 64 416c0 6.4 0 12.8 6.4 32L128 806.4h774.4l51.2-358.4v-6.4c6.4-12.8 6.4-19.2 6.4-25.6 0-44.8-38.4-89.6-89.6-89.6z"  horiz-adv-x="1024" />

    
    <glyph glyph-name="mima" unicode="&#58913;" d="M985.6 531.2h-128v19.2C857.6 742.4 704 896 512 896S166.4 742.4 166.4 550.4v-12.8h-128c-19.2 0-32-12.8-32-32v-595.2c0-19.2 12.8-32 32-32h947.2c19.2 0 32 12.8 32 32V499.2c0 19.2-12.8 32-32 32zM230.4 550.4C230.4 704 358.4 832 512 832s281.6-128 281.6-281.6v-12.8H230.4v12.8zM953.6-64H70.4V467.2h883.2V-64zM480 128v-128h64v128c64 12.8 108.8 70.4 108.8 140.8 0 76.8-64 140.8-140.8 140.8s-140.8-64-140.8-140.8c0-70.4 44.8-121.6 108.8-140.8zM512 345.6c44.8 0 76.8-32 76.8-76.8S556.8 192 512 192s-76.8 32-76.8 76.8 32 76.8 76.8 76.8z"  horiz-adv-x="1024" />

    
    <glyph glyph-name="wodezhanghao" unicode="&#58914;" d="M659.2 396.8c76.8 51.2 128 134.4 128 230.4 0 147.2-128 268.8-275.2 268.8S243.2 774.4 243.2 620.8c0-96 51.2-179.2 128-230.4-211.2-64-364.8-256-364.8-492.8-6.4-12.8 6.4-25.6 25.6-25.6h960c19.2 0 32 12.8 32 32 0 230.4-153.6 428.8-364.8 492.8zM307.2 620.8C307.2 736 396.8 832 512 832s211.2-96 211.2-211.2S627.2 416 512 416 307.2 512 307.2 620.8zM64-64c19.2 230.4 211.2 416 448 416s428.8-185.6 448-416H64z"  horiz-adv-x="1024" />

    
    <glyph glyph-name="dayin" unicode="&#58908;" d="M832 652.8H192V812.8c0 6.4 6.4 12.8 6.4 19.2 6.4 6.4 12.8 6.4 25.6 6.4h576c6.4 0 19.2-6.4 25.6-6.4 0-6.4 6.4-12.8 6.4-19.2v-160zM1017.6 576c-6.4 6.4-12.8 6.4-25.6 6.4H32c-19.2 6.4-32-12.8-32-25.6v-416h192v-192h640v192h192V556.8c0 6.4-6.4 12.8-6.4 19.2zM704 76.8H320v192h384v-192z m217.6 313.6c-12.8-19.2-32-32-57.6-32-38.4 0-64 25.6-64 64s25.6 64 64 64c25.6 0 44.8-12.8 57.6-32 6.4-19.2 6.4-38.4 0-64z"  horiz-adv-x="1024" />

    
    <glyph glyph-name="baocun" unicode="&#58909;" d="M972.8 844.8C940.8 876.8 896 896 851.2 896v-384c0-32-32-57.6-70.4-57.6H236.8c-38.4 0-64 25.6-64 57.6V896A174.848 174.848 0 0 1 0 723.2v-684.8c0-44.8 19.2-89.6 51.2-121.6 32-25.6 76.8-44.8 121.6-44.8h684.8a174.848 174.848 0 0 1 172.8 172.8V723.2c-6.4 44.8-25.6 89.6-57.6 121.6zM787.2 896H236.8v-377.6h544V896z m-70.4-275.2c0-19.2-12.8-32-32-32s-32 12.8-32 32V723.2c0 6.4 6.4 19.2 12.8 25.6 6.4 6.4 12.8 12.8 25.6 12.8 6.4 0 19.2-6.4 25.6-12.8 6.4-6.4 12.8-12.8 12.8-25.6v-102.4z"  horiz-adv-x="1030" />

    
    <glyph glyph-name="jiazai" unicode="&#58910;" d="M537.6 761.6m-134.4 0a134.4 134.4 0 1 1 268.8 0 134.4 134.4 0 1 1-268.8 0ZM256 646.4m-121.6 0a121.6 121.6 0 1 1 243.2 0 121.6 121.6 0 1 1-243.2 0ZM243.2 358.4c0 57.6-51.2 108.8-108.8 108.8-57.6 0-108.8-51.2-108.8-108.8 0-57.6 51.2-108.8 108.8-108.8 57.6 0 108.8 44.8 108.8 108.8zM256 64m-89.6 0a89.6 89.6 0 1 1 179.2 0 89.6 89.6 0 1 1-179.2 0ZM537.6-51.2m-76.8 0a76.8 76.8 0 1 1 153.6 0 76.8 76.8 0 1 1-153.6 0ZM537.6-128zM825.6 70.4m-64 0a64 64 0 1 1 128 0 64 64 0 1 1-128 0ZM947.2 358.4m-51.2 0a51.2 51.2 0 1 1 102.4 0 51.2 51.2 0 1 1-102.4 0ZM787.2 640zM825.6 640m-38.4 0a38.4 38.4 0 1 1 76.8 0 38.4 38.4 0 1 1-76.8 0Z"  horiz-adv-x="1024" />

    
    <glyph glyph-name="qingkong" unicode="&#58911;" d="M928.258368 313.486148l-25.22778 170.287514c-6.306945 31.534725-31.534725 50.45556-50.45556 56.762505l-126.138899 37.84167 75.68334 245.970853c6.306945 18.920835-6.306945 37.84167-25.22778 44.148615L688.594459 893.725085c-18.920835 6.306945-37.84167 0-44.148615-25.22778L575.06945 622.526451l-126.1389 37.84167c-44.148615 12.61389-69.376395-6.306945-81.990284-18.920835L253.415256 515.308387c-18.920835-18.920835-12.61389-50.45556 18.920835-56.762505l611.773662-182.901404c18.920835-12.61389 44.148615 6.306945 44.148615 37.84167zM171.424972 231.495863c-88.29723-37.84167-81.990285-113.525009-44.148615-157.673624l100.911119-31.534725c12.61389 12.61389 94.604175 75.68334 132.445845 145.059734 6.306945 18.920835 12.61389 25.22778 12.61389 25.22778-6.306945-6.306945-6.306945-18.920835-12.61389-25.22778-25.22778-50.45556-69.376395-145.059734-88.29723-163.980569l69.376395-12.61389c12.61389 12.61389 94.604175 75.68334 132.445844 145.059735 6.306945 18.920835 12.61389 25.22778 12.61389 25.227779-6.306945-6.306945-6.306945-18.920835-12.61389-25.227779-25.22778-50.45556-69.376395-145.059734-88.297229-163.98057l94.604174-25.227779c12.61389 12.61389 94.604175 75.68334 132.445845 145.059734 6.306945 18.920835 12.61389 25.22778 12.613889 25.22778-6.306945-6.306945-6.306945-18.920835-12.613889-25.22778-25.22778-50.45556-69.376395-145.059734-88.29723-163.980569l94.604174-31.534725c12.61389 12.61389 94.604175 75.68334 132.445845 145.059734 6.306945 18.920835 12.61389 25.22778 12.61389 25.22778-6.306945-6.306945-6.306945-18.920835-12.61389-25.22778-25.22778-50.45556-69.376395-145.059734-88.29723-163.980569l88.29723-25.22778s69.376395 6.306945 81.990284 81.990285c18.920835 107.218064 31.534725 170.287514 31.534725 245.970853L272.336091 389.169487c-18.920835-56.762505-44.148615-132.445844-100.911119-157.673624z"  horiz-adv-x="1024" />

    


  </font>
</defs>
</svg>
